<?xml version="1.0" encoding="UTF-8"?>
<svg id="Layer_2" data-name="Layer 2" xmlns="http://www.w3.org/2000/svg" xmlns:xlink="http://www.w3.org/1999/xlink" viewBox="0 0 138.37 55.11">
  <defs>
    <style>
      .cls-1 {
        fill: url(#linear-gradient);
      }

      .cls-1, .cls-2, .cls-3, .cls-4 {
        stroke: #000;
        stroke-miterlimit: 10;
      }

      .cls-5 {
        filter: url(#drop-shadow-1);
      }

      .cls-2 {
        fill: url(#linear-gradient-4);
      }

      .cls-3 {
        fill: url(#linear-gradient-3);
      }

      .cls-4 {
        fill: url(#linear-gradient-2);
      }
    </style>
    <filter id="drop-shadow-1" x="-13.87" y="-8.1" width="170" height="86" filterUnits="userSpaceOnUse">
      <feOffset dx="2" dy="7"/>
      <feGaussianBlur result="blur" stdDeviation="5"/>
      <feFlood flood-color="#17296d" flood-opacity=".7"/>
      <feComposite in2="blur" operator="in"/>
      <feComposite in="SourceGraphic"/>
    </filter>
    <linearGradient id="linear-gradient" x1="20.08" y1="54.57" x2="20.08" y2="8.22" gradientUnits="userSpaceOnUse">
      <stop offset=".15" stop-color="#ffed00"/>
      <stop offset=".29" stop-color="#fff151"/>
      <stop offset=".47" stop-color="#fd0"/>
      <stop offset="1" stop-color="#ffed00"/>
    </linearGradient>
    <linearGradient id="linear-gradient-2" x1="52.83" y1="51.39" x2="52.83" y2="6.28" xlink:href="#linear-gradient"/>
    <linearGradient id="linear-gradient-3" x1="96.67" y1="48.74" x2="96.67" y2="1.42" xlink:href="#linear-gradient"/>
    <linearGradient id="linear-gradient-4" x1="131.21" y1="45.13" x2="131.21" y2=".54" xlink:href="#linear-gradient"/>
  </defs>
  <g id="Layer_2-2" data-name="Layer 2">
    <g class="cls-5">
      <path class="cls-1" d="M11.52,24.36l-2.88,29.57-8.09.63L4.78,10.94l8.46-.66,15.31,28.53,2.98-29.95,8.09-.63-4.23,43.63-8.09.63-15.77-28.11Z"/>
      <path class="cls-4" d="M41.23,51.39l4.23-43.63,18.97-1.48-.8,8.13-10.51.82-.85,9.14,10.14-.79-.75,8.07-10.2.8-.96,10.15,10.76-.84-.8,8.13-19.22,1.5Z"/>
      <path class="cls-3" d="M95.54,16.92l-10.4,31.04-10.01.78-8.4-42.64,8.71-.68,5.95,31.26,10.6-32.55,9.02-.7,6.39,31.29L117.91,2.1l8.71-.68-14.92,44.47-9.7.76-6.45-29.72Z"/>
      <path class="cls-2" d="M124.64,40.18c-.24-3.05,1.7-5.51,4.87-5.76s5.47,1.89,5.7,4.94-1.88,5.53-4.87,5.76-5.47-1.95-5.7-4.94ZM134.77,32.13l-8.21.64,3.04-31.59,8.21-.64-3.04,31.59Z"/>
    </g>
  </g>
</svg>