<?xml version="1.0" encoding="UTF-8"?>
<svg id="Layer_2" data-name="Layer 2" xmlns="http://www.w3.org/2000/svg" xmlns:xlink="http://www.w3.org/1999/xlink" viewBox="0 0 88.54 24.09">
  <defs>
    <style>
      .cls-1 {
        filter: url(#drop-shadow-1);
        opacity: .9;
      }

      .cls-2 {
        fill: lime;
      }
    </style>
    <filter id="drop-shadow-1" x="-5.67" y="-4.74" width="102" height="37" filterUnits="userSpaceOnUse">
      <feOffset dx="1" dy="2"/>
      <feGaussianBlur result="blur" stdDeviation="2"/>
      <feFlood flood-color="#00ff24" flood-opacity=".45"/>
      <feComposite in2="blur" operator="in"/>
      <feComposite in="SourceGraphic"/>
    </filter>
  </defs>
  <g id="Layer_2-2" data-name="Layer 2">
    <g class="cls-1">
      <path class="cls-2" d="M1.04,7.33l1.67-2.29-2.71-.89.64-2,2.71.85V.16s2.13,0,2.13,0v2.85s2.68-.86,2.68-.86l.68,2-2.71.9,1.68,2.28-1.71,1.25-1.68-2.28-1.67,2.29-1.71-1.25Z"/>
      <path class="cls-2" d="M10.2,21.33h1.36c.38,0,.63-.08.75-.22.12-.14.18-.43.18-.86l-.03-16.41c0-.45-.06-.75-.18-.89-.12-.14-.37-.21-.75-.21h-1.36s0-2.6,0-2.6h4.96s7.48,13.46,7.48,13.46c.76,1.35,1.35,2.47,1.77,3.33.42.87.77,1.69,1.06,2.48-.07-.4-.13-.78-.16-1.12-.04-.34-.06-.7-.07-1.07-.01-.37-.03-.77-.04-1.21-.01-.44-.02-.97-.02-1.59l-.02-10.6c0-.43-.07-.72-.2-.87-.13-.15-.38-.23-.73-.23h-1.46s0-2.6,0-2.6h7.46s0,2.59,0,2.59h-1.36c-.38,0-.63.08-.75.24-.12.16-.18.45-.18.87l.04,20.08h-2.78s-7.37-13.32-7.37-13.32c-.36-.64-.67-1.21-.93-1.71-.26-.5-.5-.98-.72-1.44s-.41-.92-.59-1.37c-.18-.45-.36-.95-.56-1.5.07.71.13,1.41.18,2.1.05.69.07,1.34.08,1.96l.02,11.63c0,.43.06.71.18.86.12.14.37.21.75.21h1.46s0,2.6,0,2.6h-7.46s0-2.59,0-2.59Z"/>
      <path class="cls-2" d="M31.35,21.29h1.36c.38,0,.63-.08.75-.22.12-.14.18-.43.18-.86l-.03-16.41c0-.45-.06-.75-.18-.89-.12-.14-.37-.21-.75-.21h-1.36s0-2.6,0-2.6l16.05-.03v6.42s-2.52,0-2.52,0v-1.71c0-.88-.14-1.45-.4-1.71-.26-.26-.85-.39-1.75-.39h-6.14s.01,7.43.01,7.43h2.71c.52,0,.86-.08,1-.22.14-.14.21-.45.21-.93v-1.61s2.6,0,2.6,0l.02,7.96h-2.6s0-1.6,0-1.6c0-.45-.05-.74-.16-.87-.11-.13-.36-.2-.77-.19h-3s.02,8.64.02,8.64h7.1c.86-.02,1.41-.14,1.66-.37.25-.24.37-.77.37-1.61v-2.96s2.53,0,2.53,0v7.53s-16.89.03-16.89.03v-2.6Z"/>
      <path class="cls-2" d="M64.71,3.75c0-.43-.07-.72-.2-.87-.13-.15-.37-.23-.73-.23h-1.36s0-2.6,0-2.6h7.53s0,2.59,0,2.59h-1.36c-.38,0-.63.08-.75.24-.12.16-.18.45-.18.87l.02,12.99c0,1.47-.19,2.66-.56,3.55-.38.89-1.02,1.65-1.92,2.27-1.45,1.03-3.28,1.54-5.49,1.54-1.57,0-2.95-.23-4.14-.69-1.19-.46-2.11-1.11-2.75-1.94-.21-.28-.39-.58-.54-.89-.14-.31-.26-.64-.36-1-.1-.36-.16-.76-.2-1.21-.04-.45-.06-.99-.06-1.61l-.02-12.99c0-.45-.06-.75-.18-.89-.12-.14-.37-.21-.75-.21h-1.36s0-2.6,0-2.6h7.53s0,2.59,0,2.59h-1.36c-.36,0-.6.08-.73.24-.13.16-.2.45-.19.87l.02,12.99c0,1.12.11,1.94.33,2.46.22.52.63.95,1.25,1.28.98.55,2.14.82,3.5.81,1.76,0,3.04-.35,3.83-1.04.8-.69,1.19-1.79,1.19-3.28l-.03-13.23Z"/>
      <path class="cls-2" d="M73.23.09h3.17s-.25,17.9-.25,17.9h-2.6s-.32-17.9-.32-17.9ZM73.27,19.93h3.17s0,3.88,0,3.88h-3.17s0-3.88,0-3.88Z"/>
      <path class="cls-2" d="M80.74,7.18l1.67-2.29-2.71-.89.64-2,2.71.85V0s2.13,0,2.13,0v2.85s2.68-.86,2.68-.86l.68,2-2.71.9,1.68,2.28-1.71,1.25-1.68-2.28-1.67,2.29-1.71-1.25Z"/>
    </g>
  </g>
</svg>