<?xml version="1.0" encoding="UTF-8"?>
<svg id="Layer_2" data-name="Layer 2" xmlns="http://www.w3.org/2000/svg" viewBox="0 0 189.74 161.14">
  <defs>
    <style>
      .cls-1 {
        opacity: .8;
        stroke-width: 5.92px;
      }

      .cls-1, .cls-2 {
        stroke: #fff;
      }

      .cls-1, .cls-2, .cls-3 {
        stroke-miterlimit: 10;
      }

      .cls-2 {
        fill: #fcee21;
        stroke-width: .7px;
      }

      .cls-3 {
        fill: red;
        stroke: #fdfdf7;
        stroke-width: 1.48px;
      }
    </style>
  </defs>
  <g id="Layer_2-2" data-name="Layer 2">
    <circle class="cls-1" cx="114.46" cy="85.86" r="71.96"/>
    <g>
      <path class="cls-3" d="M83.64,132.36l-1.63-70.82-10.17.23-.38-16.72,27.11-.62,2.01,87.54-16.94.39ZM91.95,51.36l-14.12.32.08,3.39,10.73-.25,1.64,71.16,3.39-.08-1.71-74.55Z"/>
      <path class="cls-3" d="M131.24,132.96c-14.01.32-25.68-10.82-26-24.83l-.92-40.1c-.32-14.01,10.82-25.68,24.83-26s25.68,10.82,26,24.83l.92,40.1c.32,14.01-10.82,25.68-24.83,26ZM148.37,67.02c-.24-10.28-8.79-18.44-19.07-18.21s-18.44,8.79-18.21,19.07l.92,40.1c.24,10.28,8.79,18.44,19.06,18.21,10.28-.24,18.45-8.79,18.21-19.07l-.92-40.1ZM131,122.79c-8.47.2-15.4-6.43-15.6-14.9l-.92-40.1c-.19-8.47,6.43-15.4,14.9-15.6,8.47-.19,15.4,6.43,15.6,14.9l.92,40.1c.2,8.47-6.43,15.4-14.9,15.6ZM138.19,66.91c-.11-4.63-4.04-8.38-8.67-8.28s-8.38,4.03-8.28,8.67l.94,40.77c.11,4.63,4.03,8.38,8.67,8.28,4.63-.11,8.38-4.03,8.28-8.67l-.94-40.77Z"/>
    </g>
    <path class="cls-2" d="M116.18,160.77c-41.3.95-75.68-31.88-76.63-73.18S71.43,11.91,112.74,10.96s75.68,31.88,76.63,73.18c.95,41.3-31.88,75.68-73.18,76.63ZM112.87,16.88c-38.04.87-68.27,32.53-67.4,70.57.87,38.04,32.53,68.27,70.57,67.4,38.04-.87,68.27-32.53,67.4-70.57-.87-38.04-32.53-68.27-70.57-67.4Z"/>
    <path class="cls-3" d="M11.9,23.13h-4.32c-2.45,0-4.03-1.22-4.03-3.02v-.43l.36-2.38c.36-1.8,1.87-2.95,4.1-2.95h5.18l1.51-10.15c.29-1.94,2.02-3.46,3.74-3.46s2.88,1.44,2.88,3.46c0,.29,0,.58-.07.79l-1.37,9.36h10.8l1.51-10.15c.36-2.52,1.15-3.46,3.02-3.46s3.53,1.22,3.53,2.66c0,.72-.14,1.73-.29,2.95l-1.22,7.99h4.18c2.45,0,4.03,1.22,4.03,3.02v.43l-.43,2.38c-.29,1.87-1.66,2.88-4.03,2.95h-5.04l-1.58,10.51h4.25c2.23,0,4.1,1.44,4.1,3.1,0,.14,0,.22-.07.36l-.36,2.38c-.36,1.94-1.66,2.88-4.03,2.95h-5.18l-1.73,11.38c-.22,1.37-1.87,2.59-3.74,2.59-1.66,0-2.66-1.08-2.66-2.95,0-.43,0-.79.07-1.15l1.44-9.86h-10.87l-1.58,10.66c-.29,1.94-1.66,3.31-3.24,3.31-1.73,0-3.38-1.44-3.38-2.88,0-.29.07-.94.22-1.94l1.37-9.14h-4.1c-2.45,0-4.1-1.22-4.1-3.02,0-.14,0-.29.07-.43l.36-2.38c.29-1.73,2.02-2.95,4.03-2.95h5.04l1.66-10.51ZM27.74,33.65l1.66-10.51h-10.8l-1.73,10.51h10.87Z"/>
  </g>
</svg>