<?xml version="1.0" encoding="UTF-8"?>
<svg id="Layer_2" data-name="Layer 2" xmlns="http://www.w3.org/2000/svg" viewBox="0 0 187.67 20.94">
  <defs>
    <style>
      .cls-1 {
        fill: #fff;
      }
    </style>
  </defs>
  <g id="Layer_2-2" data-name="Layer 2">
    <g>
      <path class="cls-1" d="M0,20.56L3.56.38h3.97l-2.89,16.45h4.9l-.67,3.73H0Z"/>
      <path class="cls-1" d="M14.79,20.56h-3.97L14.38.38h3.97l-3.56,20.18Z"/>
      <path class="cls-1" d="M30.39,20.56h-3.76l-2.77-14.61-2.6,14.61h-3.73L21.09.38h5.48l2.83,14.7L37.3.38h5.75l-3.56,20.18h-3.85l2.57-14.61-7.82,14.61Z"/>
      <path class="cls-1" d="M46.17,20.56h-3.97L45.76.38h3.97l-3.56,20.18Z"/>
      <path class="cls-1" d="M58.45,4.17l-2.89,16.39h-4l2.89-16.39h-3.62l.67-3.79h11.2l-.7,3.79h-3.56Z"/>
      <path class="cls-1" d="M60.98,20.56L64.54.38h8.9l-.67,3.76h-4.93l-.73,4.23h4.75l-.64,3.73h-4.78l-.82,4.7h5.05l-.67,3.76h-9.01Z"/>
      <path class="cls-1" d="M75.68.38h3.38c5.98,0,9.48,3.35,9.48,8.92,0,7.12-4.81,11.26-11.67,11.26h-4.75L75.68.38ZM76.76,17h.29c4.02,0,7.32-2.3,7.32-7.7,0-3.24-1.81-5.37-5.07-5.37h-.23l-2.3,13.07Z"/>
      <path class="cls-1" d="M92.95,20.56L96.51.38h8.9l-.67,3.76h-4.93l-.73,4.23h4.75l-.64,3.73h-4.78l-.82,4.7h5.05l-.67,3.76h-9.01Z"/>
      <path class="cls-1" d="M107.65.38h3.38c5.98,0,9.48,3.35,9.48,8.92,0,7.12-4.81,11.26-11.67,11.26h-4.75L107.65.38ZM108.73,17h.29c4.02,0,7.32-2.3,7.32-7.7,0-3.24-1.81-5.37-5.07-5.37h-.23l-2.3,13.07Z"/>
      <path class="cls-1" d="M124.56,20.56h-3.97L124.15.38h3.97l-3.56,20.18Z"/>
      <path class="cls-1" d="M136.84,4.17l-2.89,16.39h-4l2.89-16.39h-3.62l.67-3.79h11.2l-.7,3.79h-3.56Z"/>
      <path class="cls-1" d="M143.34,20.56h-3.97l3.56-20.18h3.97l-3.56,20.18Z"/>
      <path class="cls-1" d="M158.04,0c5.8,0,9.62,3.91,9.62,9.6,0,6.42-4.26,11.35-10.79,11.35-5.92,0-9.83-3.82-9.83-9.89,0-5.75,4.26-11.05,11-11.05ZM151.22,11.05c0,3.35,1.95,6.15,5.51,6.15,4.02,0,6.77-3.06,6.77-7.61,0-3.38-2.04-5.86-5.6-5.86-4.2,0-6.68,3.5-6.68,7.32Z"/>
      <path class="cls-1" d="M174,6.88l-2.42,13.68h-3.79l3.56-20.18h3.97l6.1,13.85,2.48-13.85h3.79l-3.56,20.18h-3.79l-6.33-13.68Z"/>
    </g>
  </g>
</svg>