<?xml version="1.0" encoding="UTF-8"?>
<svg id="Layer_2" data-name="Layer 2" xmlns="http://www.w3.org/2000/svg" viewBox="0 0 328.87 36.91">
  <defs>
    <style>
      .cls-1 {
        opacity: .9;
      }

      .cls-2 {
        fill: #fff;
      }
    </style>
  </defs>
  <g id="Layer_2-2" data-name="Layer 2">
    <g class="cls-1">
      <path class="cls-2" d="M0,30.08l2.58-.11.04.89c.11,2.57,1.68,3.79,4.71,3.66,1.16-.05,2.06-.32,2.71-.81.65-.49.95-1.15.92-1.97-.03-.62-.24-1.09-.64-1.42-.4-.33-1.18-.69-2.32-1.08l-3.25-1.13c-1.49-.5-2.56-1.07-3.22-1.71-.66-.64-1.01-1.45-1.05-2.43-.03-.67.08-1.29.32-1.87.25-.58.6-1.08,1.07-1.51.47-.43,1.03-.78,1.69-1.04.66-.26,1.38-.41,2.18-.44,1.34-.06,2.65.18,3.93.72.21.09.37.14.47.13.15,0,.23-.22.24-.63l2.47-.11.24,5.66-2.47.11-.03-.73c-.04-1.03-.41-1.79-1.1-2.29-.69-.5-1.68-.72-2.96-.66-.92.04-1.66.26-2.21.67-.55.41-.81.94-.78,1.58,0,.23.05.44.12.61.07.18.21.34.41.48.2.15.46.29.79.43.33.14.75.3,1.28.49l3.21,1.1c1.7.6,2.9,1.24,3.62,1.93.71.69,1.09,1.63,1.14,2.81.03.77-.08,1.48-.35,2.14-.27.66-.66,1.23-1.18,1.71s-1.15.87-1.88,1.16c-.73.29-1.55.45-2.45.49-1.41.06-2.83-.2-4.24-.78-.05-.05-.11-.08-.16-.09-.05-.01-.1-.03-.16-.05l-.23-.07c-.08-.02-.17-.03-.27-.03-.13,0-.22.07-.26.19-.05.12-.06.34-.05.68l-2.58.11-.29-6.78Z"/>
      <path class="cls-2" d="M31.4,31.42c-1.26,3.04-3.53,4.63-6.82,4.77-2.47.11-4.43-.58-5.88-2.06-1.45-1.48-2.24-3.58-2.36-6.31-.06-1.41.06-2.69.37-3.84.31-1.15.78-2.13,1.4-2.96.62-.82,1.39-1.47,2.31-1.93.92-.46,1.97-.72,3.15-.77,1.77-.08,3.3.35,4.57,1.27l-.04-1.04,2.5-.11.27,6.28-2.5.11c.02-.13.03-.23.03-.31v-.23c-.06-1.16-.44-2.01-1.16-2.58-.72-.56-1.73-.81-3.04-.76-1.67.07-2.92.68-3.74,1.82-.83,1.14-1.19,2.75-1.1,4.83s.57,3.48,1.45,4.51c.88,1.03,2.1,1.51,3.67,1.44,1.13-.05,2.03-.33,2.7-.83.67-.5,1.3-1.37,1.89-2.61l2.33,1.29Z"/>
      <path class="cls-2" d="M50.26,34.5c-.71.31-1.34.48-1.91.51-.82.04-1.47-.17-1.96-.63-.48-.46-.76-1.13-.82-2.03-.35.92-1.01,1.65-1.99,2.21-.98.56-2.18.87-3.59.93-2,.09-3.63-.36-4.86-1.35-1.24-.99-1.9-2.36-1.97-4.1-.04-.87.09-1.67.4-2.39.3-.72.75-1.34,1.33-1.87.58-.53,1.29-.95,2.13-1.27.84-.32,1.77-.5,2.79-.55s1.85.04,2.62.25c.77.21,1.51.56,2.23,1.04l-.07-1.7c-.06-1.28-.39-2.2-1.01-2.76-.62-.55-1.59-.8-2.93-.74-2.03.09-3.27.89-3.72,2.4l-3.16.14c.56-3.11,2.77-4.75,6.62-4.92,2.29-.1,4.04.34,5.27,1.32.35.27.63.55.85.83.22.29.4.61.54.96.14.35.25.77.32,1.26.07.49.12,1.05.15,1.69l.27,6.32c.04.85.14,1.42.32,1.7.18.29.51.42,1,.4.33-.01.68-.09,1.03-.24l.11,2.58ZM40.59,33.11c1.36-.06,2.41-.4,3.14-1.02.73-.62,1.08-1.46,1.03-2.52s-.46-1.89-1.24-2.44c-.78-.55-1.85-.79-3.22-.73s-2.37.39-3.1,1c-.73.61-1.08,1.46-1.03,2.53s.46,1.86,1.24,2.42c.78.56,1.84.81,3.18.75Z"/>
      <path class="cls-2" d="M52.01,32.07l1.43-.06c.36-.02.59-.08.69-.18s.14-.33.13-.66l-.45-10.36c-.01-.33-.08-.55-.18-.65-.11-.1-.34-.14-.7-.12l-1.43.06-.11-2.54,5.28-.23.1,2.35c1.23-1.91,2.95-2.91,5.16-3,1.59-.07,2.76.3,3.5,1.1.74.8,1.15,2.13,1.23,3.98l.38,8.86c.01.33.08.55.2.65.12.1.35.14.68.13l1.43-.06.11,2.54-5.28.23-.51-11.71c-.05-1.13-.3-1.94-.76-2.44-.46-.49-1.18-.72-2.15-.68-2.67.12-3.94,1.77-3.8,4.95l.29,6.82c.01.33.08.55.2.65.12.1.35.14.68.13l1.43-.06.11,2.54-7.55.33-.11-2.54Z"/>
      <path class="cls-2" d="M71.39,31.24l1.43-.06c.36-.02.59-.08.69-.18s.14-.33.13-.66l-.45-10.36c-.01-.33-.08-.55-.18-.65-.11-.1-.34-.14-.7-.12l-1.43.06-.11-2.54,5.28-.23.1,2.35c1.23-1.91,2.95-2.91,5.16-3,1.59-.07,2.76.3,3.5,1.1.74.8,1.15,2.13,1.23,3.98l.38,8.86c.01.33.08.55.2.65.12.1.35.14.68.13l1.43-.06.11,2.54-5.28.23-.51-11.71c-.05-1.13-.3-1.94-.76-2.44-.46-.49-1.18-.72-2.15-.68-2.67.12-3.94,1.77-3.8,4.95l.29,6.82c.01.33.08.55.2.65.12.1.35.14.68.13l1.43-.06.11,2.54-7.55.33-.11-2.54Z"/>
      <path class="cls-2" d="M105,27.31c-.39,1.74-1.15,3.1-2.28,4.07-1.13.98-2.55,1.5-4.27,1.57-1.13.05-2.16-.12-3.09-.5-.93-.38-1.74-.95-2.43-1.69-.69-.74-1.24-1.64-1.64-2.69-.41-1.05-.64-2.23-.69-3.54s.07-2.56.38-3.68c.31-1.12.78-2.09,1.4-2.92.62-.82,1.37-1.47,2.25-1.95.88-.48,1.87-.74,2.98-.78,2.23-.1,4.02.68,5.35,2.32,1.33,1.64,2.06,3.98,2.19,7.01l-11.64.5c.21,1.79.73,3.17,1.57,4.14.84.97,1.91,1.42,3.22,1.37.92-.04,1.7-.32,2.32-.85.62-.53,1.05-1.27,1.29-2.24l3.08-.13ZM101.91,22.12c-.22-1.48-.69-2.6-1.4-3.36-.71-.75-1.65-1.11-2.81-1.06s-2.17.49-2.9,1.32c-.72.83-1.14,1.98-1.26,3.45l8.36-.36Z"/>
      <path class="cls-2" d="M119.47,29.93c-.71.83-1.44,1.42-2.18,1.77-.74.35-1.63.55-2.66.6-2.26.1-4.06-.61-5.4-2.12-1.34-1.51-2.07-3.67-2.19-6.47s.44-5.02,1.68-6.67c1.24-1.65,3-2.52,5.29-2.62,1.08-.05,2,.09,2.78.42.77.33,1.47.85,2.09,1.57l-.3-7.05c-.01-.31-.08-.52-.2-.63-.12-.11-.35-.16-.68-.14l-1.43.06-.11-2.54,5.28-.23.97,22.35c.01.33.08.55.18.65.11.1.33.14.66.13l1.31-.06.11,2.54-5.12.22-.08-1.77ZM114.9,29.55c1.49-.06,2.6-.64,3.32-1.73.73-1.09,1.04-2.66.95-4.71s-.54-3.66-1.36-4.73c-.82-1.07-1.96-1.58-3.42-1.51s-2.58.67-3.34,1.82c-.76,1.15-1.1,2.76-1.01,4.81s.55,3.59,1.38,4.61c.83,1.02,1.99,1.5,3.48,1.43Z"/>
      <path class="cls-2" d="M126.02,28.88l1.7-.07c.39-.02.62-.07.71-.17s.12-.35.1-.76l-.48-11.1-2.97.13-.11-2.54,2.97-.13-.15-3.47c-.16-3.62,1.32-5.5,4.43-5.63.39-.02.79,0,1.22.04.43.05.89.12,1.38.23l.12,2.85c-.39-.16-.73-.28-1.02-.34-.29-.06-.61-.09-.97-.07-.82.04-1.4.29-1.72.75-.33.46-.47,1.24-.42,2.32l.14,3.2,2.89-.12.11,2.54-2.89.12.48,11.1c.02.41.08.66.19.74.11.09.34.12.7.1l1.7-.07.11,2.54-8.09.35-.11-2.54Z"/>
      <path class="cls-2" d="M142.1,13.2c1.13-.05,2.16.12,3.09.5.93.38,1.74.95,2.43,1.71.69.76,1.24,1.68,1.64,2.77.41,1.09.64,2.3.7,3.64s-.07,2.6-.38,3.7c-.31,1.11-.78,2.07-1.4,2.88-.62.81-1.38,1.45-2.27,1.91-.89.46-1.91.72-3.04.77s-2.16-.12-3.09-.5c-.93-.38-1.73-.95-2.41-1.71-.68-.76-1.22-1.68-1.63-2.77-.41-1.09-.64-2.3-.7-3.64s.07-2.56.38-3.68c.31-1.12.77-2.09,1.38-2.9.61-.81,1.36-1.45,2.25-1.91.89-.46,1.91-.72,3.04-.77ZM142.75,28.35c1.41-.06,2.49-.66,3.22-1.8.74-1.14,1.06-2.7.98-4.67s-.55-3.54-1.38-4.61c-.83-1.07-1.95-1.58-3.37-1.51s-2.45.66-3.18,1.8c-.74,1.14-1.06,2.71-.97,4.71s.54,3.5,1.38,4.57c.83,1.07,1.94,1.58,3.33,1.52Z"/>
      <path class="cls-2" d="M159.48,12.45c1.13-.05,2.16.12,3.09.5.93.38,1.74.95,2.43,1.71.69.76,1.24,1.68,1.64,2.77.41,1.09.64,2.3.7,3.64s-.07,2.6-.38,3.7c-.31,1.11-.78,2.07-1.4,2.88-.62.81-1.38,1.45-2.27,1.91-.89.46-1.91.72-3.04.77s-2.16-.12-3.09-.5c-.93-.38-1.73-.95-2.41-1.71-.68-.76-1.22-1.68-1.63-2.77-.41-1.09-.64-2.3-.7-3.64s.07-2.56.38-3.68c.31-1.12.77-2.09,1.38-2.9.61-.81,1.36-1.45,2.25-1.91.89-.46,1.91-.72,3.04-.77ZM160.13,27.6c1.41-.06,2.49-.66,3.22-1.8.74-1.14,1.06-2.7.98-4.67s-.55-3.54-1.38-4.61c-.83-1.07-1.95-1.58-3.37-1.51s-2.45.66-3.18,1.8c-.74,1.14-1.06,2.71-.97,4.71s.54,3.5,1.38,4.57c.83,1.07,1.94,1.58,3.33,1.52Z"/>
      <path class="cls-2" d="M174.6,29.32c-.67.03-1.23,0-1.68-.1-.45-.1-.82-.28-1.1-.55-.28-.27-.49-.63-.63-1.07-.14-.44-.22-1.01-.25-1.71l-.47-10.94-2.31.1-.11-2.54,2.31-.1-.17-3.89,3.01-.13.17,3.89,2.74-.12.11,2.54-2.74.12.44,10.29c.03.75.13,1.21.29,1.4s.54.27,1.13.24l1.39-.06.11,2.54-2.23.1Z"/>
      <path class="cls-2" d="M179.8,6.71c-.01-.31-.08-.52-.2-.63-.12-.11-.35-.16-.68-.14l-1.43.06-.11-2.54,5.28-.23.46,10.75c.71-.93,1.44-1.61,2.21-2.04.77-.43,1.68-.67,2.73-.72,2.05-.09,3.71.61,4.97,2.1s1.95,3.56,2.06,6.2c.06,1.44-.05,2.74-.33,3.89-.28,1.16-.72,2.15-1.32,2.97-.6.82-1.33,1.47-2.21,1.95-.88.48-1.87.74-2.98.78-1.77.08-3.3-.47-4.59-1.65l-.4,1.48-2.5.11-.97-22.35ZM188.03,26.39c1.41-.06,2.47-.65,3.17-1.78.7-1.12,1-2.74.91-4.85s-.52-3.56-1.3-4.6c-.78-1.03-1.86-1.52-3.25-1.46s-2.45.7-3.18,1.91c-.73,1.22-1.05,2.88-.96,4.98.08,1.95.51,3.42,1.29,4.4.78.98,1.88,1.44,3.32,1.38Z"/>
      <path class="cls-2" d="M214.75,27.4c-.71.31-1.34.48-1.91.51-.82.04-1.47-.17-1.96-.63-.48-.46-.76-1.13-.82-2.03-.35.92-1.01,1.65-1.99,2.21-.98.56-2.18.87-3.59.93-2,.09-3.63-.36-4.86-1.35-1.24-.99-1.9-2.36-1.97-4.1-.04-.87.09-1.67.4-2.39.3-.72.75-1.34,1.33-1.87.58-.53,1.29-.95,2.13-1.27.84-.32,1.77-.5,2.79-.55s1.85.04,2.62.25c.77.21,1.51.56,2.23,1.04l-.07-1.7c-.06-1.28-.39-2.2-1.01-2.76-.62-.55-1.59-.8-2.93-.74-2.03.09-3.27.89-3.72,2.4l-3.16.14c.56-3.11,2.77-4.75,6.62-4.92,2.29-.1,4.04.34,5.27,1.32.35.27.63.55.85.83.22.29.4.61.54.96.14.35.25.77.32,1.26.07.49.12,1.05.15,1.69l.27,6.32c.04.85.14,1.42.32,1.7.18.29.51.42,1,.4.33-.01.68-.09,1.03-.24l.11,2.58ZM205.07,26c1.36-.06,2.41-.4,3.14-1.02.73-.62,1.08-1.46,1.03-2.52s-.46-1.89-1.24-2.44c-.78-.55-1.86-.79-3.22-.73s-2.37.39-3.1,1c-.73.61-1.08,1.46-1.03,2.53s.46,1.86,1.24,2.42c.78.56,1.84.81,3.18.75Z"/>
      <path class="cls-2" d="M216.22,24.98l1.43-.06c.33-.01.56-.08.67-.18.11-.11.16-.33.15-.66l-.82-19c-.01-.31-.08-.52-.2-.63-.12-.11-.35-.16-.68-.14l-1.43.06-.11-2.54,5.28-.23.97,22.35c.01.33.08.55.18.65.11.1.33.14.66.13l1.43-.06.11,2.54-7.51.32-.11-2.54Z"/>
      <path class="cls-2" d="M225.62,24.57l1.43-.06c.33-.01.56-.08.67-.18.11-.11.16-.33.15-.66l-.82-19c-.01-.31-.08-.52-.2-.63-.12-.11-.35-.16-.68-.14l-1.43.06-.11-2.54,5.28-.23.97,22.35c.01.33.08.55.18.65.11.1.33.14.66.13l1.43-.06.11,2.54-7.51.32-.11-2.54Z"/>
      <path class="cls-2" d="M233.93,31.86l1.43-.06c.36-.02.59-.08.69-.18.1-.11.14-.37.12-.78l-.77-17.88c-.01-.33-.08-.55-.2-.65-.12-.1-.35-.14-.68-.13l-1.43.06-.11-2.54,5.28-.23.08,1.77c1.02-1.51,2.53-2.31,4.53-2.4,2.21-.1,3.98.62,5.3,2.14,1.33,1.53,2.05,3.68,2.17,6.45s-.41,4.99-1.58,6.65c-1.18,1.66-2.86,2.54-5.04,2.63-1.98.09-3.58-.55-4.79-1.92l.25,5.9c.02.41.07.67.17.76.09.1.33.14.72.12l1.43-.06.11,2.5-7.55.33-.11-2.5ZM243.18,24.35c1.46-.06,2.54-.66,3.24-1.8.7-1.14,1-2.76.91-4.86s-.53-3.6-1.32-4.63c-.79-1.03-1.92-1.52-3.38-1.46s-2.51.64-3.23,1.74c-.71,1.1-1.02,2.68-.93,4.73s.53,3.7,1.33,4.77c.79,1.07,1.92,1.58,3.39,1.51Z"/>
      <path class="cls-2" d="M253.1,23.38l1.43-.06c.33-.01.56-.08.67-.18.11-.11.16-.33.15-.66l-.82-19c-.01-.31-.08-.52-.2-.63-.12-.11-.35-.16-.68-.14l-1.43.06-.11-2.54,5.28-.23.47,10.9c1.33-1.94,3.13-2.95,5.39-3.05,1.59-.07,2.77.29,3.54,1.08.77.79,1.19,2.08,1.27,3.88l.39,9.09c.01.33.08.55.18.65.11.1.33.14.66.13l1.43-.06.11,2.54-5.24.23-.52-12.02c-.04-1-.3-1.72-.77-2.15-.47-.43-1.22-.62-2.24-.58-1.31.06-2.32.45-3.04,1.17-.72.73-1.05,1.71-.99,2.94l.33,7.59c.01.33.08.55.18.65.11.1.33.14.66.13l1.46-.06.11,2.54-7.55.33-.11-2.54Z"/>
      <path class="cls-2" d="M278.38,7.31c1.13-.05,2.16.12,3.09.5.93.38,1.74.95,2.43,1.71.69.76,1.24,1.68,1.64,2.77.41,1.09.64,2.3.7,3.64s-.07,2.6-.38,3.7c-.31,1.11-.78,2.07-1.4,2.88-.62.81-1.38,1.45-2.27,1.91-.89.46-1.91.72-3.04.77s-2.16-.12-3.09-.5c-.93-.38-1.73-.95-2.41-1.71-.68-.76-1.22-1.68-1.63-2.77-.41-1.09-.64-2.3-.7-3.64s.07-2.56.38-3.68c.31-1.12.77-2.09,1.38-2.9.61-.81,1.36-1.45,2.25-1.91.89-.46,1.91-.72,3.04-.77ZM279.04,22.46c1.41-.06,2.49-.66,3.22-1.8.74-1.14,1.06-2.7.98-4.67s-.55-3.54-1.38-4.61c-.83-1.07-1.95-1.58-3.37-1.51s-2.45.66-3.18,1.8c-.74,1.14-1.06,2.71-.97,4.71s.54,3.5,1.38,4.57c.83,1.07,1.94,1.58,3.33,1.52Z"/>
      <path class="cls-2" d="M293.51,24.19c-.67.03-1.23,0-1.68-.1-.45-.1-.82-.28-1.1-.55-.28-.27-.49-.63-.63-1.07-.14-.44-.22-1.01-.25-1.71l-.47-10.94-2.31.1-.11-2.54,2.31-.1-.17-3.89,3.01-.13.17,3.89,2.74-.12.11,2.54-2.74.12.44,10.29c.03.75.13,1.21.29,1.4s.54.27,1.13.24l1.39-.06.11,2.54-2.23.1Z"/>
      <path class="cls-2" d="M304.62,6.18c1.13-.05,2.16.12,3.09.5.93.38,1.74.95,2.43,1.71.69.76,1.24,1.68,1.64,2.77.41,1.09.64,2.3.7,3.64s-.07,2.6-.38,3.7c-.31,1.11-.78,2.07-1.4,2.88-.62.81-1.38,1.45-2.27,1.91-.89.46-1.91.72-3.04.77s-2.16-.12-3.09-.5c-.93-.38-1.73-.95-2.41-1.71-.68-.76-1.22-1.68-1.63-2.77-.41-1.09-.64-2.3-.7-3.64s.07-2.56.38-3.68c.31-1.12.77-2.09,1.38-2.9.61-.81,1.36-1.45,2.25-1.91.89-.46,1.91-.72,3.04-.77ZM305.28,21.32c1.41-.06,2.49-.66,3.22-1.8.74-1.14,1.06-2.7.98-4.67s-.55-3.54-1.38-4.61c-.83-1.07-1.95-1.58-3.37-1.51s-2.45.66-3.18,1.8c-.74,1.14-1.06,2.71-.97,4.71s.54,3.5,1.38,4.57c.83,1.07,1.94,1.58,3.33,1.52Z"/>
      <path class="cls-2" d="M314.76,16.47l2.58-.11.04.89c.11,2.57,1.68,3.79,4.71,3.66,1.16-.05,2.06-.32,2.71-.81.65-.49.95-1.15.92-1.97-.03-.62-.24-1.09-.64-1.42-.4-.33-1.18-.69-2.32-1.08l-3.25-1.13c-1.49-.5-2.56-1.07-3.22-1.71-.66-.64-1.01-1.45-1.05-2.43-.03-.67.08-1.29.32-1.87.25-.58.6-1.08,1.07-1.51.47-.43,1.03-.78,1.69-1.04.66-.26,1.38-.41,2.18-.44,1.34-.06,2.65.18,3.93.72.21.09.37.14.47.13.15,0,.23-.22.24-.63l2.47-.11.24,5.66-2.47.11-.03-.73c-.04-1.03-.41-1.79-1.1-2.29-.69-.5-1.68-.72-2.96-.66-.92.04-1.66.26-2.21.67-.55.41-.81.94-.78,1.58,0,.23.05.44.12.61.07.18.21.34.41.48.2.15.46.29.79.43.33.14.75.3,1.28.49l3.21,1.1c1.7.6,2.9,1.24,3.62,1.93.71.69,1.09,1.63,1.14,2.81.03.77-.08,1.48-.35,2.14-.27.66-.66,1.23-1.18,1.71s-1.15.87-1.88,1.16c-.73.29-1.55.45-2.45.49-1.41.06-2.83-.2-4.24-.78-.05-.05-.11-.08-.16-.09-.05-.01-.1-.03-.16-.05l-.23-.07c-.08-.02-.17-.03-.27-.03-.13,0-.22.07-.26.19-.05.12-.06.34-.05.68l-2.58.11-.29-6.78Z"/>
    </g>
  </g>
</svg>