<?xml version="1.0" encoding="UTF-8"?>
<svg id="Layer_2" data-name="Layer 2" xmlns="http://www.w3.org/2000/svg" viewBox="0 0 268.97 51.57">
  <defs>
    <style>
      .cls-1 {
        fill: #fff;
      }

      .cls-2 {
        fill: none;
        stroke: #1a1a1a;
        stroke-linecap: round;
        stroke-linejoin: round;
        stroke-width: 1.7px;
      }
    </style>
  </defs>
  <g id="Layer_2-2" data-name="Layer 2">
    <g>
      <path class="cls-1" d="M3.59,8.74c-.52.4-1.08.56-1.6.56-1.08,0-2-1-2-2.23,0-.72.48-1.52,1.32-2.08L7.14.96c1.04-.72,1.68-.96,2.47-.96,1.28,0,2.19.92,2.19,2.19v26.57c0,1.24-.96,2.07-2.31,2.07s-2.35-.84-2.35-2.07V6.26l-3.55,2.47Z"/>
      <path class="cls-1" d="M41.81,3.59c1.96,2.59,2.71,5.87,2.71,11.85s-.76,9.22-2.71,11.81c-1.72,2.27-4.47,3.59-7.66,3.59s-5.94-1.32-7.66-3.59c-1.96-2.59-2.71-5.9-2.71-11.73s.76-9.38,2.71-11.93c1.8-2.35,4.47-3.59,7.82-3.59,3.03,0,5.79,1.32,7.5,3.59ZM30.12,6.46c-1.16,1.68-1.68,4.55-1.68,8.94s.52,7.26,1.68,8.94c.88,1.32,2.39,2.11,4.03,2.11s3.11-.8,4.03-2.11c1.16-1.68,1.68-4.47,1.68-8.86s-.52-7.38-1.72-9.02c-.96-1.36-2.39-2.08-4.07-2.08-1.56,0-3.03.8-3.95,2.08Z"/>
      <path class="cls-1" d="M67.7,3.59c1.95,2.59,2.71,5.87,2.71,11.85s-.76,9.22-2.71,11.81c-1.72,2.27-4.47,3.59-7.66,3.59s-5.94-1.32-7.66-3.59c-1.96-2.59-2.71-5.9-2.71-11.73s.76-9.38,2.71-11.93c1.8-2.35,4.47-3.59,7.82-3.59,3.03,0,5.79,1.32,7.5,3.59ZM56.01,6.46c-1.16,1.68-1.68,4.55-1.68,8.94s.52,7.26,1.68,8.94c.88,1.32,2.39,2.11,4.03,2.11s3.11-.8,4.03-2.11c1.16-1.68,1.68-4.47,1.68-8.86s-.52-7.38-1.72-9.02c-.96-1.36-2.39-2.08-4.07-2.08-1.56,0-3.03.8-3.95,2.08Z"/>
      <path class="cls-1" d="M93.59,3.59c1.96,2.59,2.71,5.87,2.71,11.85s-.76,9.22-2.71,11.81c-1.72,2.27-4.47,3.59-7.66,3.59s-5.94-1.32-7.66-3.59c-1.96-2.59-2.71-5.9-2.71-11.73s.76-9.38,2.71-11.93c1.8-2.35,4.47-3.59,7.82-3.59,3.03,0,5.79,1.32,7.5,3.59ZM81.9,6.46c-1.16,1.68-1.68,4.55-1.68,8.94s.52,7.26,1.68,8.94c.88,1.32,2.39,2.11,4.03,2.11s3.11-.8,4.03-2.11c1.16-1.68,1.68-4.47,1.68-8.86s-.52-7.38-1.72-9.02c-.96-1.36-2.39-2.08-4.07-2.08-1.56,0-3.03.8-3.95,2.08Z"/>
      <path class="cls-1" d="M146.34,23.46c0,1.08-.84,2.55-2.19,3.99-2.19,2.23-4.91,3.39-8.18,3.39-6.5,0-11.17-4.59-11.17-10.97s4.83-11.25,11.57-11.25c3.19,0,5.71,1,7.86,3.07,1.28,1.28,1.96,2.51,1.96,3.55,0,.96-.92,1.68-2.07,1.68-1,0-1.36-.2-2.35-1.4-1.56-1.83-3.55-2.75-5.94-2.75-3.87,0-6.62,2.83-6.62,6.9s2.99,7.06,7.06,7.06c2.11,0,4.03-1.08,5.23-2.83,1.24-1.92,1.6-2.19,2.79-2.19,1.08,0,2.07.84,2.07,1.76Z"/>
      <path class="cls-1" d="M171.55,11.89c2,1.99,3.07,4.71,3.07,7.86,0,6.46-4.67,11.09-11.17,11.09s-11.21-4.63-11.21-11.17,4.83-11.05,11.41-11.05c2.91,0,5.79,1.2,7.9,3.27ZM158.54,14.8c-1.28,1.24-1.91,2.95-1.91,4.95,0,4.19,2.63,6.98,6.58,6.98,4.27,0,7.02-2.83,7.02-7.14,0-3.99-2.83-6.82-6.78-6.82-1.8,0-3.59.76-4.91,2.03Z"/>
      <path class="cls-1" d="M185.99,35.11c0,1.12-.92,1.91-2.19,1.91-1.2,0-2.19-.88-2.19-1.91V10.65c0-1.2.92-2.04,2.19-2.04.84,0,1.56.4,1.88.96.08.12.24.52.44,1.16.96-.72,1.16-.84,1.48-1.04,1.08-.64,2.83-1.08,4.47-1.08,5.94,0,10.17,4.67,10.17,11.21,0,3.35-1.2,6.54-3.23,8.54-1.64,1.64-3.95,2.47-6.9,2.47-1.91,0-3.55-.4-4.79-1.2q-.24-.16-1.32-.92v6.38ZM187.43,15.12c-.92,1.36-1.44,3.07-1.44,4.79,0,3.99,2.55,6.82,6.22,6.82,3.39,0,5.63-2.87,5.63-7.22,0-4.11-2.35-6.74-6.02-6.74-1.88,0-3.35.76-4.39,2.35Z"/>
      <path class="cls-1" d="M214.56,3.11c0,1.72-1.44,3.11-3.15,3.11s-3.11-1.4-3.11-3.15,1.44-3.07,3.19-3.07c1.64,0,3.07,1.44,3.07,3.11ZM209.21,10.73c0-1.16,1-2.11,2.19-2.11s2.19.96,2.19,2.11v17.99c0,1.16-.96,2.11-2.19,2.11s-2.19-.96-2.19-2.11V10.73Z"/>
      <path class="cls-1" d="M225.17,21.78c1.08,3.67,2.75,4.95,6.58,4.95,1.68,0,3.15-.28,4.27-.84q.52-.24,2.87-2.07c.44-.36.96-.52,1.56-.52,1.08,0,2.07.96,2.07,1.96,0,.88-.72,1.91-2.07,2.95-2.35,1.76-5.19,2.63-8.74,2.63-3.31,0-5.59-.68-7.38-2.27-2.35-1.99-3.71-5.35-3.71-8.98s1.2-6.38,3.51-8.3c2.07-1.72,4.91-2.67,7.86-2.67,6.34,0,11.01,4.55,11.01,10.65,0,1.76-.76,2.51-2.59,2.51h-15.24ZM238.41,17.63c-.44-1.52-.52-1.72-1.04-2.35-1.24-1.64-3.19-2.51-5.59-2.51s-4.43.92-5.75,2.67c-.44.56-.52.76-.96,2.19h13.33Z"/>
      <path class="cls-1" d="M266.38,11.09c1.16.92,1.8,2,1.8,3.11,0,1.04-.84,1.76-1.99,1.76-1.08,0-1.28-.08-2.59-1.32-1.24-1.16-3.31-1.87-5.23-1.87-2.27,0-3.83.84-3.83,2.07s.92,1.72,4.15,2.27c4.43.72,6.42,1.28,7.66,2.03,1.8,1.08,2.63,2.59,2.63,4.63,0,4.43-3.67,7.06-9.89,7.06-3.59,0-5.98-.76-7.82-2.51-1.4-1.32-2.31-2.95-2.31-4.03s.96-1.88,2.27-1.88c.48,0,.92.12,1.28.4q.28.24,1.12,1.72c.84,1.36,2.71,2.19,5.15,2.19,3.99,0,5.83-.92,5.83-2.91,0-1.4-.84-1.91-4.27-2.55-5.27-.96-6.9-1.44-8.1-2.31-1.36-1-2.07-2.39-2.07-4.15,0-3.71,3.39-6.18,8.46-6.18,2.67,0,5.9,1.04,7.78,2.47Z"/>
    </g>
    <path class="cls-2" d="M15.49,46.23s2.31-1.34,2.31-1.33c0,0-2.26,1.91-2.26,1.92,0,0,2.85-1.65,2.85-1.65,0,0-3.16,2.14-3.16,2.15,0,0,3.89-2.25,3.89-2.25,0,0-3.62,2.58-3.62,2.58,0,0,5.02-2.9,5.02-2.9,0,0-4.64,3.22-4.64,3.23,0,0,5.24-3.03,5.24-3.03,0,0-5.3,3.55-5.3,3.55,0,0,6.16-3.56,6.16-3.56,0,0-5.94,3.46-5.94,3.47,0,0,6.12-3.54,6.13-3.54,0,0-6.98,4.23-6.98,4.24,0,0,6.96-4.02,6.96-4.02,0,0-6.03,3.9-6.03,3.91,0,0,6.74-3.9,6.75-3.9,0,0-6.82,4-6.82,4,0,0,7.53-4.35,7.53-4.35,0,0-7.29,4.38-7.29,4.39,0,0,7.56-4.37,7.56-4.37,0,0-8.16,4.89-8.16,4.9s8.4-4.86,8.41-4.85c0,0-7.92,4.83-7.92,4.83,0,0,8.56-4.95,8.56-4.94,0,0-8.26,5.22-8.25,5.23,0,0,8.76-5.06,8.76-5.06,0,0-9.11,5.27-9.1,5.28,0,0,9.13-5.28,9.13-5.27,0,0-8.58,5.45-8.57,5.46,0,0,9.63-5.57,9.63-5.56s-9.72,5.92-9.72,5.92c0,0,10.07-5.82,10.07-5.82,0,0-9.52,6.1-9.51,6.1,0,0,10.85-6.27,10.85-6.26,0,0-9.6,6.18-9.6,6.18,0,0,10.47-6.05,10.47-6.05,0,0-10.56,6.13-10.55,6.14s10.17-5.88,10.17-5.87c0,0-9.71,5.64-9.7,5.64,0,0,9.83-5.68,9.83-5.68,0,0-10.07,6.26-10.06,6.27,0,0,11.45-6.62,11.45-6.61,0,0-10.59,6.19-10.59,6.19,0,0,10.09-5.83,10.09-5.82,0,0-10.36,6.13-10.35,6.13,0,0,10.67-6.17,10.68-6.17,0,0-10.01,6.06-10.01,6.07,0,0,11.16-6.45,11.16-6.44,0,0-10.13,6.14-10.13,6.15,0,0,10.03-5.8,10.03-5.79,0,0-10.14,6.17-10.13,6.18,0,0,10.97-6.34,10.97-6.33,0,0-9.83,5.94-9.83,5.95,0,0,10.15-5.87,10.16-5.86,0,0-9.21,5.95-9.21,5.96,0,0,10.68-6.18,10.69-6.17,0,0-10.06,6.03-10.05,6.04,0,0,10.83-6.26,10.83-6.25,0,0-10.81,6.49-10.81,6.49,0,0,10.6-6.13,10.61-6.12s-10.84,6.33-10.84,6.34c0,0,10.99-6.35,10.99-6.35,0,0-10.14,6.29-10.14,6.3,0,0,11.17-6.46,11.18-6.45,0,0-10.58,6.15-10.58,6.15,0,0,10.34-5.98,10.34-5.97,0,0-9.95,6.13-9.94,6.13,0,0,10.56-6.1,10.56-6.1,0,0-9.71,5.78-9.71,5.78,0,0,10.17-5.88,10.17-5.87,0,0-9.54,5.98-9.54,5.99,0,0,10.19-5.89,10.2-5.89,0,0-9.24,5.77-9.24,5.78,0,0,9.89-5.72,9.89-5.71,0,0-10.44,6.17-10.44,6.18,0,0,10.93-6.32,10.93-6.31,0,0-9.65,6.16-9.65,6.17,0,0,10.95-6.33,10.96-6.33,0,0-9.88,6.04-9.88,6.04,0,0,10.56-6.1,10.56-6.1,0,0-11.01,6.44-11.01,6.45s10.76-6.22,10.76-6.21c0,0-9.82,6.15-9.82,6.16,0,0,11.03-6.38,11.04-6.37,0,0-9.87,6.24-9.87,6.24,0,0,10.81-6.25,10.82-6.24,0,0-9.55,6.16-9.55,6.17,0,0,10.35-5.99,10.36-5.98,0,0-10.06,6.05-10.05,6.05,0,0,10.49-6.07,10.5-6.06,0,0-10.3,6.29-10.3,6.3,0,0,11.25-6.5,11.25-6.5s-10.95,6.38-10.95,6.38c0,0,11.14-6.44,11.15-6.44,0,0-10.81,6.37-10.81,6.37,0,0,11.43-6.61,11.43-6.6,0,0-10.44,6.66-10.44,6.67,0,0,10.8-6.25,10.81-6.24,0,0-9.49,5.97-9.49,5.97,0,0,10.99-6.35,10.99-6.35,0,0-10.58,6.64-10.57,6.65,0,0,11.48-6.64,11.48-6.63,0,0-10.87,6.57-10.87,6.57,0,0,11.21-6.48,11.22-6.48,0,0-10.34,6.2-10.34,6.21,0,0,11.11-6.43,11.12-6.42,0,0-10.11,6.35-10.11,6.36,0,0,10.47-6.05,10.47-6.05,0,0-10.36,6.24-10.36,6.25s10.83-6.26,10.84-6.26c0,0-10.2,6.26-10.2,6.26,0,0,10.67-6.17,10.67-6.16,0,0-10.4,6.07-10.4,6.08s10.85-6.28,10.86-6.27c0,0-10.91,6.44-10.91,6.44,0,0,11.13-6.44,11.14-6.43,0,0-10.19,6.5-10.18,6.51,0,0,11.36-6.57,11.36-6.56,0,0-11.04,6.53-11.04,6.53,0,0,11.14-6.44,11.15-6.44s-10.25,6.44-10.24,6.44c0,0,11.3-6.53,11.3-6.52,0,0-10.99,6.37-10.98,6.37,0,0,10.7-6.19,10.71-6.18,0,0-9.56,5.96-9.56,5.96,0,0,10.62-6.14,10.63-6.13,0,0-10.12,6.28-10.12,6.29,0,0,11.19-6.47,11.19-6.46,0,0-10.11,6.41-10.11,6.41s10.54-6.1,10.55-6.09c0,0-9.37,6.01-9.37,6.01,0,0,10.26-5.93,10.27-5.93,0,0-9.37,5.95-9.36,5.95,0,0,10.99-6.35,11-6.35,0,0-10.05,6.13-10.05,6.13,0,0,10.64-6.15,10.65-6.15,0,0-10.78,6.57-10.77,6.57,0,0,10.92-6.32,10.93-6.31,0,0-9.99,6.15-9.99,6.16,0,0,10.67-6.17,10.68-6.16,0,0-9.88,6.22-9.87,6.22,0,0,10.94-6.32,10.94-6.32,0,0-10.51,6.12-10.51,6.13,0,0,10.36-5.99,10.37-5.98,0,0-9.67,6-9.66,6.01,0,0,10.86-6.28,10.87-6.27,0,0-11.01,6.45-11.01,6.46,0,0,10.84-6.27,10.84-6.26s-10.61,6.25-10.61,6.26c0,0,11.59-6.7,11.59-6.69,0,0-10.71,6.67-10.7,6.67,0,0,10.96-6.33,10.96-6.33,0,0-9.56,5.95-9.55,5.95,0,0,10.23-5.91,10.23-5.91,0,0-9.56,6.06-9.56,6.07,0,0,10.66-6.16,10.66-6.16,0,0-10.64,6.3-10.64,6.31s11.22-6.49,11.22-6.48-10.52,6.19-10.51,6.2c0,0,10.8-6.24,10.8-6.24,0,0-10.77,6.27-10.77,6.27,0,0,11.11-6.42,11.11-6.41,0,0-10.73,6.66-10.72,6.66,0,0,11.53-6.66,11.53-6.66,0,0-10.66,6.56-10.65,6.56,0,0,11.18-6.46,11.19-6.46s-10.61,6.15-10.61,6.16c0,0,10.48-6.06,10.48-6.05,0,0-10.44,6.55-10.43,6.55,0,0,11.52-6.66,11.53-6.66s-10.51,6.57-10.51,6.57,11.32-6.54,11.32-6.54c0,0-9.77,6.2-9.77,6.21,0,0,10.87-6.28,10.87-6.28,0,0-10.16,6.12-10.15,6.13,0,0,10.28-5.94,10.28-5.94,0,0-10.42,6.03-10.41,6.03,0,0,10.46-6.05,10.47-6.04,0,0-11.05,6.41-11.04,6.42,0,0,11.29-6.53,11.3-6.52,0,0-10.56,6.43-10.56,6.44,0,0,11.32-6.54,11.32-6.54,0,0-10.69,6.22-10.69,6.22s10.78-6.23,10.78-6.22-10.54,6.43-10.53,6.43,10.85-6.27,10.85-6.27c0,0-10.54,6.34-10.54,6.34,0,0,11.25-6.5,11.25-6.5,0,0-10.6,6.21-10.6,6.21,0,0,10.9-6.3,10.9-6.29s-11.34,6.66-11.34,6.66c0,0,11.03-6.38,11.04-6.37,0,0-9.87,6.11-9.87,6.12,0,0,10.36-5.99,10.37-5.98,0,0-10.65,6.17-10.64,6.18,0,0,11.28-6.52,11.29-6.52,0,0-10.25,6.22-10.25,6.23,0,0,10.75-6.21,10.75-6.21s-10.68,6.29-10.68,6.3c0,0,10.51-6.08,10.52-6.07,0,0-10.8,6.37-10.8,6.37,0,0,11-6.36,11.01-6.35,0,0-10.58,6.15-10.58,6.16,0,0,11.24-6.5,11.24-6.49,0,0-10.29,6.38-10.29,6.39,0,0,10.45-6.04,10.45-6.03,0,0-9.49,6.06-9.49,6.06,0,0,11.15-6.44,11.15-6.44,0,0-9.66,6.22-9.65,6.23,0,0,10.68-6.17,10.68-6.17,0,0-10.47,6.54-10.47,6.54,0,0,11.54-6.67,11.54-6.66s-11.17,6.51-11.17,6.52c0,0,10.64-6.15,10.65-6.15,0,0-10.59,6.26-10.58,6.27,0,0,10.98-6.35,10.99-6.34,0,0-10.05,5.96-10.04,5.96,0,0,10.75-6.21,10.75-6.21,0,0-9.77,6.12-9.77,6.12,0,0,10.33-5.97,10.33-5.96,0,0-10.88,6.48-10.88,6.49,0,0,10.9-6.3,10.91-6.3,0,0-9.25,5.78-9.24,5.79,0,0,10.41-6.02,10.42-6.01,0,0-9.97,6.4-9.96,6.4,0,0,11.58-6.69,11.58-6.69,0,0-11.44,6.72-11.44,6.73,0,0,11.42-6.6,11.42-6.59,0,0-11.1,6.49-11.1,6.5,0,0,10.74-6.21,10.75-6.21,0,0-10.08,5.95-10.08,5.96,0,0,10.55-6.1,10.55-6.09,0,0-9.57,6.01-9.57,6.02,0,0,10.45-6.04,10.46-6.04,0,0-10.19,6.47-10.19,6.47,0,0,11.53-6.66,11.53-6.66,0,0-10.64,6.31-10.64,6.31,0,0,10.93-6.32,10.93-6.31s-11.3,6.57-11.3,6.58c0,0,11.06-6.39,11.06-6.39,0,0-10.38,6.39-10.38,6.4,0,0,11.18-6.47,11.19-6.46,0,0-10.48,6.42-10.47,6.42,0,0,10.72-6.2,10.72-6.19,0,0-9.26,5.97-9.26,5.98,0,0,11.15-6.44,11.15-6.44,0,0-10.09,6.44-10.08,6.44s10.62-6.14,10.63-6.14c0,0-9.92,6.04-9.92,6.04,0,0,10.64-6.15,10.65-6.15,0,0-9.97,6.2-9.97,6.21,0,0,10.56-6.1,10.56-6.1,0,0-9,5.82-9,5.82,0,0,10.1-5.84,10.11-5.84,0,0-9.58,5.85-9.58,5.85,0,0,10.35-5.99,10.36-5.98,0,0-10.23,6.31-10.22,6.32,0,0,10.89-6.29,10.89-6.29s-9.91,6.35-9.91,6.35c0,0,11.58-6.69,11.58-6.69,0,0-10.38,6.34-10.37,6.34,0,0,10.9-6.3,10.91-6.3,0,0-10.46,6.4-10.45,6.4,0,0,10.64-6.15,10.65-6.15,0,0-10.78,6.34-10.78,6.34,0,0,11.27-6.51,11.27-6.51,0,0-10.46,6.38-10.46,6.39s10.86-6.28,10.86-6.27c0,0-11.05,6.46-11.05,6.47,0,0,11.32-6.54,11.32-6.54,0,0-9.78,6.1-9.78,6.11,0,0,10.64-6.15,10.65-6.15,0,0-10.2,6.32-10.2,6.33,0,0,10.54-6.09,10.55-6.09,0,0-9.85,5.93-9.84,5.93,0,0,10.28-5.95,10.29-5.94,0,0-9.63,5.95-9.63,5.95,0,0,10.28-5.95,10.29-5.94,0,0-9.44,5.93-9.43,5.93,0,0,10.59-6.12,10.59-6.12,0,0-10.6,6.36-10.59,6.37s10.71-6.19,10.71-6.19c0,0-9.78,6.25-9.78,6.26,0,0,10.86-6.28,10.86-6.27,0,0-9.81,5.78-9.81,5.78,0,0,10.17-5.88,10.17-5.87,0,0-10.79,6.32-10.79,6.32,0,0,11.48-6.64,11.49-6.63s-10.42,6.41-10.42,6.42,10.33-5.97,10.33-5.96c0,0-9.74,6.2-9.73,6.21,0,0,11.41-6.6,11.41-6.59,0,0-10.94,6.56-10.93,6.56s10.87-6.28,10.87-6.28-10.45,6.08-10.44,6.09c0,0,11.36-6.57,11.37-6.56,0,0-10.82,6.55-10.82,6.55,0,0,10.48-6.06,10.49-6.05,0,0-9.89,5.76-9.88,5.77,0,0,10.65-6.16,10.65-6.15s-11.08,6.43-11.08,6.44,10.6-6.13,10.6-6.12c0,0-9.3,5.98-9.29,5.99,0,0,10.35-5.98,10.35-5.98,0,0-9.53,5.77-9.52,5.78,0,0,10.38-6,10.39-6,0,0-9.97,6.26-9.96,6.26,0,0,10.33-5.97,10.33-5.96,0,0-10.03,6.16-10.03,6.16,0,0,11.41-6.6,11.42-6.59,0,0-10.54,6.12-10.53,6.12,0,0,9.95-5.75,9.95-5.75,0,0-9.81,5.79-9.81,5.8,0,0,10.8-6.24,10.8-6.24,0,0-10.85,6.37-10.84,6.38,0,0,10.55-6.1,10.55-6.09,0,0-9.91,6.03-9.9,6.04,0,0,10.88-6.29,10.88-6.28,0,0-11.23,6.59-11.23,6.6,0,0,10.95-6.33,10.95-6.32s-10.57,6.29-10.56,6.29c0,0,11.18-6.46,11.19-6.46s-10.8,6.38-10.79,6.39c0,0,10.77-6.23,10.78-6.22,0,0-9.93,6.22-9.93,6.22,0,0,11.4-6.59,11.4-6.58s-11.55,6.72-11.55,6.73c0,0,11.08-6.4,11.08-6.4,0,0-9.51,5.84-9.51,5.84,0,0,9.85-5.7,9.86-5.69,0,0-9.46,5.98-9.45,5.99,0,0,10.4-6.01,10.4-6.01,0,0-9.54,5.86-9.54,5.87,0,0,10.9-6.3,10.9-6.29,0,0-10.22,6.22-10.22,6.23,0,0,10.7-6.19,10.7-6.18,0,0-11.07,6.53-11.07,6.53,0,0,10.73-6.2,10.73-6.2,0,0-9.84,5.83-9.84,5.84,0,0,10.79-6.24,10.79-6.23s-11.17,6.54-11.16,6.54c0,0,11.3-6.53,11.3-6.52s-10.81,6.46-10.81,6.47c0,0,11.09-6.41,11.1-6.41,0,0-9.72,6.2-9.71,6.2,0,0,10.7-6.19,10.7-6.18,0,0-10.78,6.34-10.78,6.35,0,0,10.59-6.12,10.6-6.12,0,0-9.81,6.04-9.81,6.05,0,0,10.4-6.01,10.4-6.01,0,0-9.92,5.84-9.92,5.85,0,0,10.51-6.07,10.51-6.07,0,0-9.52,6.06-9.51,6.07,0,0,10.32-5.97,10.33-5.96,0,0-9.92,5.81-9.91,5.81,0,0,10-5.78,10-5.77,0,0-9.41,5.92-9.41,5.93,0,0,10.72-6.19,10.72-6.19,0,0-10.49,6.37-10.49,6.38,0,0,11.1-6.42,11.11-6.41,0,0-9.52,6.03-9.52,6.04,0,0,10.21-5.9,10.21-5.9,0,0-10.96,6.4-10.96,6.41s10.87-6.29,10.88-6.28c0,0-9.86,6.07-9.85,6.07,0,0,10.88-6.29,10.89-6.28,0,0-9.59,5.94-9.59,5.95,0,0,10.58-6.11,10.58-6.11,0,0-11.4,6.61-11.4,6.61,0,0,11.25-6.5,11.25-6.5s-10.79,6.33-10.79,6.34,10.74-6.21,10.74-6.2c0,0-9.19,5.9-9.19,5.9,0,0,10.16-5.87,10.16-5.87,0,0-10.34,6.14-10.34,6.15,0,0,11.15-6.44,11.15-6.44,0,0-9.61,6.1-9.61,6.1,0,0,10.38-6,10.39-6,0,0-10.59,6.13-10.58,6.13,0,0,10.88-6.29,10.89-6.29,0,0-10.32,6.52-10.31,6.52,0,0,11.39-6.58,11.39-6.58,0,0-9.75,6.26-9.75,6.26,0,0,10.88-6.29,10.88-6.28,0,0-10.82,6.32-10.82,6.33,0,0,10.25-5.93,10.26-5.92,0,0-9.64,6.07-9.63,6.08,0,0,11.12-6.43,11.12-6.42s-11.16,6.54-11.15,6.55c0,0,10.63-6.14,10.63-6.14,0,0-9.5,6.11-9.5,6.11,0,0,11.06-6.39,11.06-6.39,0,0-9.99,6.38-9.99,6.39,0,0,10.73-6.2,10.73-6.2,0,0-9.28,5.83-9.27,5.83,0,0,10.43-6.03,10.43-6.02s-10.97,6.45-10.97,6.46c0,0,10.89-6.3,10.9-6.29,0,0-10.12,6.13-10.12,6.14,0,0,11.38-6.58,11.39-6.57,0,0-10.74,6.38-10.74,6.38,0,0,10.48-6.06,10.48-6.05,0,0-11,6.38-11,6.39,0,0,11.55-6.68,11.55-6.67,0,0-10.59,6.42-10.59,6.42,0,0,10.96-6.33,10.96-6.33,0,0-9.68,6.08-9.68,6.09,0,0,10.07-5.82,10.07-5.81s-10.29,6.14-10.29,6.14c0,0,11.23-6.49,11.23-6.48s-10.67,6.25-10.67,6.25c0,0,10.5-6.07,10.51-6.07,0,0-10.15,5.94-10.15,5.95,0,0,10.47-6.05,10.47-6.04,0,0-9.88,6.15-9.88,6.15,0,0,11.03-6.38,11.03-6.37,0,0-10.71,6.73-10.71,6.74s11.52-6.66,11.52-6.65c0,0-10.12,6.21-10.11,6.21,0,0,10.25-5.93,10.26-5.92,0,0-9.63,6.19-9.63,6.19,0,0,10.87-6.29,10.88-6.28,0,0-9.04,5.87-9.04,5.87,0,0,10.08-5.83,10.09-5.82s-10.46,6.24-10.45,6.24,11.12-6.43,11.12-6.42c0,0-10.26,6.44-10.26,6.45,0,0,11.14-6.44,11.14-6.43,0,0-10.46,6.06-10.45,6.07,0,0,10.26-5.93,10.27-5.93,0,0-9.44,6.03-9.43,6.03,0,0,10.43-6.03,10.43-6.02,0,0-10.41,6.12-10.41,6.13,0,0,11.02-6.37,11.02-6.36,0,0-10.5,6.47-10.49,6.48,0,0,11.27-6.52,11.28-6.51,0,0-10.33,6.57-10.32,6.57,0,0,10.78-6.23,10.78-6.22,0,0-10.28,6.06-10.27,6.07,0,0,10.9-6.3,10.9-6.29,0,0-10.45,6.15-10.45,6.15s10.37-6,10.38-5.99c0,0-9.82,5.94-9.82,5.95,0,0,10.91-6.31,10.91-6.3s-11.29,6.6-11.28,6.6c0,0,11.21-6.48,11.21-6.47,0,0-9.33,5.96-9.33,5.97,0,0,10.35-5.99,10.36-5.98,0,0-9.65,6.03-9.65,6.03,0,0,9.98-5.77,9.99-5.77,0,0-10.1,5.89-10.1,5.9,0,0,10.64-6.15,10.64-6.14,0,0-10.98,6.43-10.97,6.44,0,0,11.35-6.56,11.35-6.56,0,0-10.36,6.05-10.36,6.06,0,0,10.02-5.8,10.03-5.79,0,0-9.61,6-9.61,6.01,0,0,10.92-6.31,10.93-6.31,0,0-10.76,6.25-10.75,6.26,0,0,10.21-5.9,10.22-5.9,0,0-9.77,5.73-9.77,5.73,0,0,10.5-6.07,10.5-6.06,0,0-10.07,6.44-10.07,6.45,0,0,10.98-6.35,10.99-6.34,0,0-9.54,5.9-9.54,5.91,0,0,9.94-5.74,9.94-5.74,0,0-9.32,6.03-9.31,6.03,0,0,10.76-6.22,10.76-6.21,0,0-9.97,6.2-9.96,6.21,0,0,10.91-6.31,10.91-6.3,0,0-10.19,6.2-10.19,6.2s11.16-6.45,11.16-6.45c0,0-10.93,6.69-10.93,6.69,0,0,10.79-6.24,10.79-6.23,0,0-9.71,5.89-9.71,5.89,0,0,10.28-5.95,10.29-5.94,0,0-10.09,5.98-10.09,5.99,0,0,10.65-6.16,10.65-6.15,0,0-9.48,5.96-9.47,5.96,0,0,9.92-5.73,9.92-5.73,0,0-9.16,5.72-9.16,5.73,0,0,10.85-6.27,10.86-6.27,0,0-10.75,6.46-10.75,6.47,0,0,11.04-6.38,11.05-6.38,0,0-10.83,6.33-10.83,6.33,0,0,10.38-6,10.39-6,0,0-9.73,6.19-9.73,6.19,0,0,10.78-6.23,10.78-6.22,0,0-9.2,5.94-9.2,5.95,0,0,10.7-6.19,10.71-6.18,0,0-9.82,6.26-9.81,6.26,0,0,11.05-6.39,11.05-6.38,0,0-10.34,6.23-10.33,6.24,0,0,10.61-6.13,10.61-6.13,0,0-9.82,6.18-9.81,6.18,0,0,10.75-6.21,10.75-6.21,0,0-10.66,6.56-10.66,6.56,0,0,10.8-6.24,10.8-6.24,0,0-9.72,6.04-9.72,6.05,0,0,10.96-6.34,10.96-6.33,0,0-9.9,6.31-9.9,6.31,0,0,11.19-6.47,11.19-6.46s-10.7,6.3-10.7,6.31,10.98-6.35,10.98-6.34c0,0-10.99,6.68-10.99,6.68,0,0,11.68-6.75,11.69-6.75s-10.42,6.32-10.41,6.33c0,0,10.66-6.16,10.66-6.15,0,0-10.77,6.29-10.77,6.29,0,0,10.34-5.98,10.34-5.97,0,0-10.25,6-10.24,6.01,0,0,10.74-6.21,10.74-6.2,0,0-9.66,6.07-9.66,6.07,0,0,10.24-5.92,10.24-5.91,0,0-9.85,5.72-9.85,5.72,0,0,9.99-5.78,10-5.77,0,0-9.5,5.79-9.5,5.8,0,0,10.87-6.28,10.87-6.28s-11.25,6.6-11.25,6.61c0,0,10.53-6.09,10.53-6.08,0,0-9.66,5.99-9.65,6,0,0,10.35-5.99,10.36-5.98,0,0-9.6,5.91-9.6,5.91,0,0,10.69-6.18,10.69-6.17,0,0-10.81,6.46-10.81,6.47,0,0,11.29-6.53,11.3-6.52,0,0-10.3,6.41-10.3,6.42,0,0,10.92-6.31,10.92-6.31,0,0-10.59,6.16-10.59,6.16,0,0,11.16-6.45,11.17-6.45,0,0-9.77,6.13-9.77,6.13,0,0,10.23-5.92,10.24-5.91,0,0-10.29,6.12-10.29,6.12,0,0,10.27-5.94,10.27-5.93,0,0-10.05,6.25-10.05,6.26,0,0,11.34-6.55,11.34-6.55,0,0-9.99,6.03-9.99,6.04,0,0,10.75-6.21,10.75-6.21,0,0-10.22,6.36-10.21,6.37,0,0,10.29-5.95,10.3-5.94,0,0-9.71,5.73-9.71,5.74,0,0,10.68-6.17,10.68-6.17,0,0-10.59,6.56-10.58,6.57,0,0,11.09-6.41,11.09-6.4s-10.52,6.46-10.52,6.46c0,0,11.11-6.43,11.12-6.42,0,0-10.46,6.2-10.46,6.21,0,0,10.9-6.3,10.9-6.3,0,0-10.71,6.56-10.71,6.57,0,0,11.67-6.75,11.67-6.74,0,0-11,6.44-11,6.44s10.93-6.32,10.93-6.31c0,0-10.11,6.16-10.11,6.16,0,0,10.32-5.96,10.32-5.96s-10.6,6.24-10.59,6.24c0,0,10.89-6.3,10.9-6.29,0,0-9.87,6.07-9.87,6.08,0,0,10.27-5.94,10.27-5.93,0,0-9.89,6.06-9.89,6.06,0,0,10.58-6.11,10.58-6.11,0,0-10.23,6.08-10.23,6.08s10.66-6.16,10.66-6.15c0,0-10.44,6.1-10.43,6.11s10.47-6.05,10.48-6.05c0,0-10.34,6.28-10.34,6.28,0,0,11.72-6.77,11.72-6.77,0,0-10.88,6.47-10.88,6.47,0,0,10.41-6.02,10.41-6.01,0,0-9.67,6.1-9.67,6.11,0,0,11.24-6.5,11.24-6.49s-11.22,6.68-11.22,6.69c0,0,10.82-6.25,10.82-6.25,0,0-9.51,5.81-9.51,5.82,0,0,10.2-5.9,10.2-5.89,0,0-9.96,5.81-9.96,5.82,0,0,10.65-6.16,10.65-6.15,0,0-11.05,6.42-11.05,6.43,0,0,10.82-6.25,10.82-6.25,0,0-10.48,6.07-10.48,6.07,0,0,10.53-6.08,10.53-6.08,0,0-10.82,6.39-10.82,6.39,0,0,10.83-6.26,10.83-6.25,0,0-9.67,5.89-9.67,5.89,0,0,10.42-6.02,10.42-6.02,0,0-10.86,6.42-10.86,6.43,0,0,10.84-6.27,10.84-6.26,0,0-8.95,5.79-8.95,5.79,0,0,10.51-6.08,10.52-6.07s-10.64,6.52-10.64,6.53c0,0,11.37-6.57,11.37-6.56,0,0-10.04,6.14-10.04,6.14,0,0,10.82-6.26,10.83-6.25,0,0-10.37,6.36-10.37,6.37,0,0,11.24-6.5,11.25-6.49,0,0-10.51,6.34-10.5,6.35,0,0,10.49-6.07,10.5-6.06,0,0-9.23,5.96-9.22,5.97,0,0,10.55-6.1,10.56-6.1,0,0-11.07,6.59-11.07,6.59s11.67-6.74,11.67-6.74c0,0-10.58,6.74-10.58,6.75,0,0,11.44-6.61,11.44-6.61s-10.68,6.53-10.68,6.54,11.57-6.69,11.57-6.68c0,0-11.37,6.63-11.37,6.64,0,0,10.71-6.19,10.71-6.19,0,0-10.66,6.18-10.65,6.18,0,0,10.79-6.24,10.79-6.23,0,0-9.38,6.02-9.38,6.03,0,0,11.09-6.41,11.09-6.4,0,0-10.52,6.24-10.52,6.24,0,0,10.03-5.8,10.04-5.79s-10.63,6.23-10.63,6.23c0,0,11.69-6.76,11.69-6.75,0,0-10.89,6.59-10.89,6.59,0,0,11.4-6.59,11.41-6.58,0,0-11.28,6.59-11.28,6.59,0,0,11.25-6.51,11.26-6.5,0,0-10.42,6.21-10.42,6.22,0,0,10.65-6.16,10.65-6.15s-10.75,6.36-10.74,6.37c0,0,11-6.36,11-6.35,0,0-10.11,6.23-10.11,6.23,0,0,11.13-6.43,11.13-6.43,0,0-11.5,6.7-11.49,6.7,0,0,11.57-6.69,11.57-6.68,0,0-11.05,6.6-11.05,6.61,0,0,11.17-6.45,11.17-6.45,0,0-9.91,6.1-9.91,6.1,0,0,10.16-5.88,10.17-5.87,0,0-9.97,5.92-9.97,5.93,0,0,10.36-5.99,10.36-5.98,0,0-9.96,6.11-9.95,6.12,0,0,10.8-6.25,10.81-6.24,0,0-10.05,6.45-10.05,6.45,0,0,10.81-6.25,10.82-6.25,0,0-9.69,6.14-9.68,6.15,0,0,10.67-6.17,10.68-6.16,0,0-9.5,5.77-9.5,5.77,0,0,10.84-6.27,10.85-6.26,0,0-10.47,6.36-10.46,6.37,0,0,10.48-6.06,10.48-6.05,0,0-10,6.34-10,6.35,0,0,11.3-6.53,11.3-6.53,0,0-9.82,6.18-9.81,6.18,0,0,10.37-6,10.38-5.99,0,0-10.86,6.35-10.86,6.35,0,0,11.63-6.72,11.63-6.71s-10.98,6.68-10.98,6.68c0,0,11.19-6.47,11.2-6.46,0,0-9.93,6.33-9.93,6.34,0,0,10.98-6.35,10.99-6.34,0,0-10.2,6.21-10.19,6.21,0,0,11.2-6.47,11.2-6.47,0,0-10.95,6.62-10.95,6.63,0,0,11.51-6.65,11.51-6.64s-10.6,6.24-10.6,6.24c0,0,10.15-5.87,10.15-5.86,0,0-10.34,6.36-10.34,6.37,0,0,11.75-6.79,11.76-6.79,0,0-9.87,6.34-9.87,6.34s10.76-6.22,10.77-6.22c0,0-9.58,6.13-9.58,6.14,0,0,10.46-6.05,10.46-6.04,0,0-10.63,6.23-10.62,6.24,0,0,11.17-6.46,11.17-6.45,0,0-10.52,6.42-10.52,6.42,0,0,10.92-6.31,10.92-6.3,0,0-9.91,6.32-9.9,6.33,0,0,10.35-5.98,10.35-5.98s-10.06,6.15-10.06,6.16c0,0,11.34-6.55,11.34-6.55,0,0-11.12,6.51-11.12,6.52,0,0,11.46-6.63,11.46-6.62,0,0-9.77,6.27-9.76,6.28,0,0,10.3-5.95,10.3-5.95,0,0-9.26,5.9-9.26,5.91,0,0,10.77-6.23,10.78-6.22s-10.74,6.39-10.73,6.4c0,0,10.32-5.97,10.32-5.96,0,0-9.14,5.71-9.14,5.72,0,0,10.83-6.26,10.83-6.25,0,0-10.45,6.66-10.45,6.66s10.98-6.35,10.98-6.34c0,0-9.91,6.33-9.9,6.34,0,0,11.02-6.37,11.02-6.36,0,0-10.4,6.43-10.4,6.44,0,0,10.84-6.26,10.84-6.26,0,0-9.83,5.79-9.82,5.8s10.53-6.09,10.53-6.08-10.95,6.43-10.95,6.44,11.14-6.44,11.14-6.43c0,0-10.05,6.15-10.05,6.15,0,0,10.65-6.16,10.65-6.15,0,0-9.81,6.03-9.8,6.04,0,0,10.2-5.9,10.2-5.89,0,0-9.38,6.01-9.37,6.01,0,0,11.12-6.43,11.12-6.42s-10.2,6.25-10.2,6.26c0,0,10.72-6.2,10.73-6.19,0,0-10.06,6.16-10.05,6.16,0,0,10.1-5.84,10.11-5.83,0,0-10.35,5.98-10.35,5.99,0,0,10.29-5.95,10.3-5.94,0,0-10.78,6.25-10.77,6.26,0,0,10.86-6.28,10.87-6.27,0,0-9.37,6.01-9.37,6.01,0,0,11.08-6.4,11.08-6.4,0,0-9.59,6.16-9.59,6.17,0,0,10.05-5.81,10.05-5.8,0,0-9.67,6.15-9.66,6.15,0,0,11.38-6.58,11.39-6.57,0,0-11.31,6.63-11.3,6.63,0,0,11.14-6.44,11.15-6.43,0,0-10.82,6.33-10.82,6.34,0,0,11.13-6.44,11.14-6.43,0,0-10.75,6.55-10.75,6.56s10.71-6.19,10.72-6.19c0,0-9.11,5.78-9.11,5.79,0,0,10.02-5.79,10.03-5.79,0,0-9.14,5.92-9.14,5.93,0,0,10.73-6.2,10.73-6.2s-10.88,6.5-10.88,6.51c0,0,10.99-6.35,10.99-6.34,0,0-10.03,6.28-10.03,6.28,0,0,11.31-6.54,11.32-6.53,0,0-10.13,6.45-10.13,6.46,0,0,11.12-6.43,11.13-6.42s-10.53,6.28-10.52,6.29c0,0,11.13-6.43,11.13-6.43,0,0-11.37,6.65-11.37,6.66,0,0,11.71-6.77,11.71-6.76,0,0-10.93,6.63-10.93,6.63s10.61-6.14,10.62-6.13c0,0-10.11,5.93-10.1,5.93,0,0,10.34-5.98,10.34-5.97,0,0-9.42,5.91-9.42,5.92,0,0,10.9-6.3,10.91-6.3s-10.97,6.65-10.96,6.65c0,0,11.28-6.52,11.29-6.52,0,0-10.88,6.42-10.87,6.43s10.67-6.17,10.67-6.16c0,0-9.33,5.9-9.32,5.91,0,0,10.88-6.29,10.88-6.28,0,0-10.53,6.48-10.53,6.48,0,0,11.2-6.47,11.2-6.47,0,0-10.16,6.38-10.15,6.38s11.24-6.5,11.25-6.49c0,0-11.3,6.58-11.3,6.59s10.98-6.35,10.98-6.34c0,0-10,6.17-10,6.18,0,0,11.28-6.52,11.28-6.51,0,0-10.12,6.3-10.12,6.31,0,0,10.36-5.99,10.37-5.98,0,0-9.7,6.18-9.7,6.18,0,0,11.12-6.43,11.13-6.42,0,0-9.98,6.41-9.98,6.41,0,0,10.85-6.27,10.86-6.27,0,0-10.3,6.25-10.3,6.25,0,0,10.49-6.07,10.5-6.06,0,0-9.99,6.15-9.98,6.15,0,0,10.88-6.29,10.88-6.28,0,0-10.65,6.16-10.65,6.17s11.31-6.54,11.32-6.53c0,0-10.52,6.6-10.52,6.6,0,0,11.19-6.47,11.2-6.46,0,0-9.91,6.3-9.91,6.3,0,0,11.11-6.42,11.11-6.42,0,0-10.02,6.28-10.01,6.28,0,0,10.61-6.13,10.61-6.13,0,0-9.74,6.24-9.74,6.25,0,0,10.27-5.94,10.27-5.93,0,0-9.07,5.81-9.07,5.81,0,0,10.84-6.26,10.84-6.26,0,0-10.27,6.11-10.27,6.11,0,0,10.04-5.8,10.04-5.8,0,0-9.99,6.01-9.99,6.01,0,0,10.36-5.99,10.36-5.98,0,0-10.65,6.27-10.65,6.27,0,0,11.64-6.73,11.65-6.72,0,0-11.27,6.52-11.27,6.53,0,0,11.26-6.51,11.26-6.5,0,0-11.02,6.41-11.01,6.42,0,0,10.49-6.07,10.5-6.06,0,0-10.24,6.07-10.24,6.07,0,0,10.87-6.29,10.88-6.28s-11.12,6.54-11.12,6.54c0,0,10.73-6.21,10.74-6.2,0,0-10.52,6.14-10.52,6.15,0,0,11.07-6.4,11.08-6.39,0,0-9.98,6-9.98,6.01,0,0,10.37-6,10.38-5.99,0,0-10.43,6.34-10.43,6.35,0,0,11.46-6.62,11.46-6.62,0,0-9.73,6.18-9.72,6.18,0,0,10.12-5.85,10.13-5.85,0,0-10.09,6.1-10.09,6.11s10.99-6.35,10.99-6.35c0,0-10.95,6.35-10.95,6.36s10.48-6.06,10.48-6.05c0,0-10.24,6.12-10.23,6.12s10.96-6.34,10.97-6.33c0,0-10.05,5.99-10.05,6,0,0,10.31-5.96,10.31-5.95,0,0-9.08,5.88-9.08,5.89,0,0,10.61-6.13,10.61-6.13,0,0-10.57,6.64-10.57,6.65s11.56-6.68,11.57-6.68c0,0-10.29,6.58-10.29,6.58s11.5-6.65,11.51-6.64c0,0-10.74,6.47-10.74,6.47,0,0,10.5-6.07,10.5-6.06,0,0-9.59,6.12-9.58,6.12,0,0,10.95-6.33,10.96-6.33,0,0-10.44,6.4-10.43,6.4s11.26-6.51,11.26-6.5c0,0-10.28,6.53-10.28,6.54,0,0,10.88-6.29,10.89-6.29,0,0-10,5.95-9.99,5.95,0,0,10.58-6.12,10.58-6.11,0,0-10.15,6.49-10.15,6.49,0,0,10.85-6.27,10.86-6.27,0,0-9,5.73-8.99,5.73,0,0,10.01-5.79,10.01-5.78,0,0-9.73,6.18-9.73,6.18,0,0,10.7-6.19,10.7-6.18,0,0-9.52,5.72-9.51,5.72,0,0,10.09-5.84,10.1-5.83,0,0-9.82,6.13-9.82,6.14,0,0,11.19-6.47,11.2-6.46,0,0-10.59,6.35-10.58,6.36,0,0,10.64-6.15,10.64-6.14,0,0-9.45,5.99-9.45,6,0,0,9.97-5.76,9.97-5.76,0,0-9.87,5.84-9.86,5.85,0,0,10.57-6.11,10.58-6.11,0,0-9.7,6.23-9.69,6.24,0,0,10.33-5.98,10.34-5.97,0,0-9.24,5.68-9.24,5.69,0,0,8.91-5.15,8.91-5.14,0,0-8.38,5.48-8.38,5.48,0,0,9.58-5.54,9.58-5.53,0,0-9.01,5.65-9.01,5.65,0,0,8.59-4.97,8.6-4.96,0,0-7.59,4.46-7.59,4.46,0,0,8.24-4.76,8.24-4.76,0,0-7.66,5.07-7.66,5.08s8.1-4.69,8.11-4.68c0,0-7.95,4.73-7.94,4.73s7.93-4.58,7.93-4.58c0,0-7.32,4.3-7.32,4.3,0,0,6.78-3.92,6.78-3.92,0,0-6.43,3.86-6.43,3.86,0,0,6.62-3.83,6.62-3.82,0,0-7.31,4.24-7.31,4.24,0,0,7.25-4.19,7.25-4.19s-6.87,4.15-6.86,4.16c0,0,7.25-4.19,7.25-4.19,0,0-6.66,3.98-6.66,3.98,0,0,6.68-3.86,6.68-3.86,0,0-6.5,3.9-6.5,3.9s6.95-4.02,6.95-4.01c0,0-5.82,3.8-5.82,3.8,0,0,5.61-3.24,5.61-3.24,0,0-5.65,3.66-5.64,3.66,0,0,5.42-3.13,5.42-3.13,0,0-4.89,3.07-4.88,3.08,0,0,5.08-2.94,5.08-2.93,0,0-3.93,2.47-3.93,2.47,0,0,3.71-2.15,3.71-2.14,0,0-2.56,2.13-2.56,2.13,0,0,2.22-1.28,2.22-1.28,0,0-1.92,1.38-1.92,1.38,0,0,2.37-1.37,2.37-1.37,0,0-2.09,1.45-2.09,1.45,0,0,1.31-.76,1.31-.75"/>
  </g>
</svg>