<?xml version="1.0" standalone="no"?>
<!DOCTYPE svg PUBLIC "-//W3C//DTD SVG 20010904//EN"
 "http://www.w3.org/TR/2001/REC-SVG-20010904/DTD/svg10.dtd">
<svg version="1.0" xmlns="http://www.w3.org/2000/svg"
 width="362.000000pt" height="362.000000pt" viewBox="0 0 362.000000 362.000000"
 preserveAspectRatio="xMidYMid meet">
<metadata>
Created by potrace 1.14, written by Peter Selinger 2001-2017
</metadata>
<g transform="translate(0.000000,362.000000) scale(0.100000,-0.100000)"
fill="#000000" stroke="none">
<path d="M582 3503 c-46 -4 -54 -8 -62 -29 -6 -14 -21 -40 -35 -58 -26 -34
-65 -145 -65 -186 0 -14 -7 -52 -15 -84 -8 -31 -17 -94 -19 -139 -3 -74 -6
-83 -30 -102 -22 -18 -26 -27 -21 -48 4 -15 11 -27 15 -27 12 0 30 -88 29
-142 -1 -45 28 -126 55 -158 8 -8 16 -43 19 -78 4 -57 3 -64 -20 -82 -24 -18
-24 -21 -13 -75 6 -30 16 -55 21 -55 16 0 10 -36 -9 -53 -28 -26 -87 -47 -113
-41 -43 11 -148 16 -174 10 -14 -4 -25 -13 -25 -21 0 -8 -11 -17 -25 -21 l-25
-6 0 -982 c0 -541 2 -985 4 -987 3 -3 23 -3 45 -1 28 3 41 9 44 23 3 10 13 19
22 19 12 0 16 -6 12 -20 -4 -14 0 -20 11 -20 120 -1 1613 4 1657 6 33 1 101 2
151 3 l91 1 -5 55 c-5 66 11 91 62 97 32 3 32 3 32 -36 -1 -22 -6 -41 -13 -44
-19 -6 -16 -22 5 -23 13 0 12 -3 -6 -11 -55 -27 -14 -33 228 -36 134 -1 247 1
251 5 4 5 13 78 19 163 7 85 16 169 20 185 7 21 8 8 5 -45 -3 -41 -7 -128 -11
-193 l-6 -117 404 2 403 3 3 1643 2 1642 -22 9 c-13 4 -90 9 -173 10 -82 1
-177 5 -210 8 -33 3 -96 6 -140 7 -236 7 -504 18 -530 22 -36 6 -1768 13
-1843 7z m2083 -119 c212 -17 255 -24 255 -45 0 -6 -7 -8 -17 -5 -19 8 -251
31 -415 41 -60 4 -108 11 -108 15 0 12 22 18 50 14 14 -2 120 -11 235 -20z
m-245 -74 c0 -5 -9 -10 -20 -10 -11 0 -20 5 -20 10 0 6 9 10 20 10 11 0 20 -4
20 -10z m159 -9 c7 -5 9 -11 5 -14 -13 -7 -74 4 -74 14 0 11 51 11 69 0z m152
-11 c10 0 19 -4 19 -10 0 -5 -16 -10 -35 -10 -25 0 -35 4 -35 16 0 11 5 14 16
10 9 -3 24 -6 35 -6z m-299 -20 c5 -15 69 -22 84 -9 19 16 25 -15 7 -41 -11
-15 -18 -19 -26 -11 -18 18 -25 13 -19 -14 4 -26 -11 -34 -24 -13 -4 7 -3 8 4
4 7 -4 12 -2 12 3 0 6 -5 11 -11 11 -5 0 -7 5 -4 10 4 6 -5 10 -20 10 -27 0
-41 20 -31 45 6 17 23 20 28 5z m478 -6 c0 -13 -6 -15 -27 -9 -46 11 -51 25
-10 25 27 0 37 -4 37 -16z m-320 -14 c0 -11 68 -9 87 3 20 13 27 -33 8 -52
-13 -12 -19 -13 -22 -3 -3 6 -12 12 -20 12 -11 0 -14 -7 -11 -25 3 -13 1 -22
-3 -19 -5 3 -9 14 -9 26 0 13 -5 18 -14 15 -21 -8 -50 17 -43 37 7 17 27 22
27 6z m170 -9 c0 -13 74 -20 83 -7 5 8 10 6 17 -4 10 -16 -7 -51 -30 -58 -9
-3 -11 2 -7 19 l6 24 -19 -22 c-20 -26 -31 -29 -27 -10 1 6 -5 13 -13 13 -8 1
-21 2 -27 3 -14 1 -18 33 -6 44 9 10 23 9 23 -2z m-340 -71 c0 -5 -9 -10 -20
-10 -11 0 -20 5 -20 10 0 6 9 10 20 10 11 0 20 -4 20 -10z m160 -14 c0 -10 -9
-12 -40 -6 -58 11 -61 20 -7 20 33 0 47 -4 47 -14z m328 -11 c-2 -21 -7 -25
-35 -25 -18 0 -33 5 -33 10 0 6 14 10 30 10 20 0 30 5 30 15 0 8 2 15 5 15 3
0 4 -11 3 -25z m-159 -1 c2 -2 2 -6 -1 -9 -8 -8 -68 6 -68 16 0 8 59 1 69 -7z
m-312 -19 c12 -12 18 -13 29 -4 10 8 14 8 14 0 0 -6 7 -11 15 -11 8 0 15 5 15
11 0 5 5 7 10 4 6 -3 10 -15 10 -26 0 -10 7 -19 15 -19 8 0 15 6 15 14 0 7 7
19 15 26 10 9 15 9 15 1 0 -15 40 -14 40 2 0 6 5 4 11 -6 7 -12 17 -15 35 -11
28 7 32 -11 10 -42 -12 -16 -16 -17 -20 -4 -7 16 -56 18 -90 5 -11 -5 -27 -3
-37 3 -13 9 -20 9 -25 0 -5 -7 -11 -5 -20 7 -12 16 -14 17 -20 2 -3 -10 -10
-17 -16 -17 -5 0 -7 4 -4 8 2 4 -4 13 -15 20 -11 7 -19 8 -19 2 0 -5 -7 -10
-15 -10 -8 0 -12 6 -10 15 3 8 7 22 10 30 6 19 13 19 32 0z m400 -37 c8 21 23
13 23 -12 0 -13 6 -26 13 -29 6 -2 0 -4 -16 -4 -15 0 -30 3 -33 8 -2 4 -11 6
-19 3 -7 -3 -23 -1 -34 6 -14 7 -21 7 -21 0 0 -5 -11 -10 -25 -10 -14 0 -25 5
-25 10 0 6 6 10 14 10 7 0 16 10 20 22 4 18 8 20 18 10 18 -18 38 -15 38 6 0
14 4 12 21 -8 14 -17 22 -21 26 -12z m-185 -85 c3 -43 0 -61 -11 -71 -12 -10
-18 -9 -31 3 -10 11 -12 18 -4 23 18 12 28 84 12 93 -9 6 -7 9 9 9 19 0 22 -6
25 -57z m-1118 -57 c-3 -7 2 -20 10 -29 14 -13 13 -16 -2 -30 -9 -9 -30 -19
-45 -23 -16 -3 -31 -14 -35 -23 -3 -9 -12 -22 -19 -29 -7 -7 -13 -20 -13 -28
0 -11 -6 -13 -19 -9 -11 3 -22 1 -26 -5 -3 -5 -15 -10 -25 -10 -10 0 -25 -7
-34 -15 -17 -17 -46 -20 -46 -5 0 6 -6 10 -13 10 -8 0 -22 9 -33 21 -16 18
-27 20 -74 15 -30 -3 -70 -8 -88 -12 -19 -4 -43 -2 -55 4 -12 6 -31 12 -42 14
-19 3 -18 5 7 27 14 13 25 28 22 35 -7 17 55 41 76 29 13 -9 19 -7 28 8 11 17
21 19 102 14 65 -3 106 0 148 11 31 9 72 19 90 21 17 3 32 9 32 14 0 5 13 9
30 9 21 0 28 -4 24 -14z m1066 -26 c0 -5 -5 -10 -11 -10 -5 0 -7 5 -4 10 3 6
8 10 11 10 2 0 4 -4 4 -10z m80 -5 c0 -8 -2 -15 -4 -15 -2 0 -6 7 -10 15 -3 8
-1 15 4 15 6 0 10 -7 10 -15z m-56 -224 c-4 -53 -10 -86 -12 -73 -2 12 -8 20
-13 16 -9 -5 -4 111 7 166 5 23 6 23 16 6 7 -12 7 -52 2 -115z m-997 103 c-3
-3 -12 -4 -19 -1 -8 3 -5 6 6 6 11 1 17 -2 13 -5z m-248 -88 c13 -16 10 -51
-6 -67 -9 -9 -18 -4 -36 17 -20 23 -22 32 -13 46 13 21 39 23 55 4z m179 -37
c-18 -11 -32 6 -24 28 7 17 8 17 22 -1 11 -16 11 -21 2 -27z m-258 -31 c0 -19
-2 -20 -10 -8 -13 19 -13 30 0 30 6 0 10 -10 10 -22z m250 -3 c0 -16 49 -45
77 -45 24 0 49 -17 40 -27 -5 -4 -12 -1 -18 7 -8 13 -10 13 -19 0 -9 -13 -12
-13 -23 0 -6 8 -18 15 -24 16 -31 2 -39 6 -61 24 -13 11 -21 24 -17 30 10 15
45 12 45 -5z m-376 -26 c-10 -16 -24 -9 -24 12 0 18 2 19 15 9 8 -7 12 -16 9
-21z m90 16 c11 -8 14 -15 8 -15 -7 0 -12 -6 -12 -13 0 -8 -18 -32 -40 -55
-45 -45 -49 -56 -20 -47 22 7 28 -13 8 -33 -16 -16 9 -47 27 -32 8 7 15 7 19
2 3 -6 0 -12 -8 -15 -20 -8 -37 -83 -22 -101 25 -32 90 -57 133 -50 22 3 49 2
59 -4 12 -6 27 -6 47 1 25 8 31 7 41 -9 18 -30 25 -74 12 -74 -6 0 -22 -3 -36
-5 -21 -5 -22 -4 -5 3 18 8 17 9 -7 14 -18 3 -29 0 -32 -9 -4 -9 -1 -11 6 -7
7 4 8 3 4 -4 -12 -20 -80 -15 -93 8 -7 10 -11 25 -8 32 18 49 -74 45 -115 -5
-15 -19 -25 -46 -27 -71 -1 -21 -7 -42 -13 -46 -13 -8 -10 -71 3 -81 4 -3 -4
-11 -18 -17 -23 -11 -26 -9 -38 21 -12 27 -12 33 0 35 7 2 13 7 13 12 0 5 3
15 6 24 12 31 -26 31 -51 0 l-23 -29 -13 30 c-13 34 -15 80 -5 111 6 18 3 23
-20 28 -37 10 -84 56 -84 84 0 13 4 20 10 17 15 -9 74 35 62 47 -13 13 -32 2
-32 -18 0 -15 -5 -16 -35 -5 -13 5 -20 18 -21 42 -1 22 -9 38 -23 47 -12 8
-21 23 -21 33 0 10 -8 23 -17 29 -16 10 -15 10 4 5 12 -3 24 -1 28 5 3 6 -3
10 -14 10 -12 0 -21 5 -21 11 0 6 8 8 18 5 9 -3 40 -7 67 -11 43 -5 46 -4 25
6 l-25 12 34 7 c19 5 40 6 47 3 7 -2 22 0 33 7 14 7 21 7 21 0 0 -5 -6 -10
-13 -10 -7 0 -13 -8 -13 -17 0 -30 76 -24 109 7 28 26 36 45 15 35 -7 -3 -3 2
10 11 12 9 22 25 22 35 0 23 8 23 34 4z m404 -183 c9 9 16 8 30 -5 10 -9 28
-17 40 -17 12 0 22 -5 22 -11 0 -7 -11 -9 -26 -6 -30 5 -46 -20 -22 -37 20
-15 32 -53 18 -61 -15 -9 -60 36 -60 61 0 11 -13 33 -30 49 -30 29 -31 58 -1
31 13 -12 20 -13 29 -4z m-204 -43 c5 -4 -2 -13 -17 -20 -33 -15 -65 4 -46 28
12 13 45 10 63 -8z m1076 -158 c-6 -69 -16 -132 -21 -141 -7 -11 -9 -4 -5 25
2 22 10 94 17 160 7 66 15 111 17 101 2 -11 -1 -76 -8 -145z m-1869 124 c5 4
9 1 9 -4 0 -14 -37 -14 -45 -1 -3 6 -3 15 1 21 5 8 10 6 16 -5 5 -9 13 -14 19
-11z m-181 -6 c0 -7 7 -17 16 -23 13 -10 13 -12 -5 -12 -12 0 -21 4 -21 9 0 4
-4 5 -10 2 -12 -7 -12 -3 -4 19 7 18 24 22 24 5z m1190 -62 c0 -16 -18 3 -23
25 -6 22 -5 22 8 4 8 -11 15 -24 15 -29z m80 -7 c0 -5 -4 -10 -10 -10 -5 0
-10 5 -10 10 0 6 5 10 10 10 6 0 10 -4 10 -10z m851 -151 c-9 -22 -10 -20 -10
16 -1 22 3 65 7 95 l7 55 3 -71 c1 -38 -2 -81 -7 -95z m-860 88 c35 -27 35
-102 -1 -104 -12 -1 -17 3 -14 12 3 7 1 16 -5 20 -8 4 -8 12 0 27 9 17 8 23
-5 30 -9 5 -14 13 -11 19 8 12 16 11 36 -4z m-1453 -125 c-22 -23 -38 -23 -87
1 -24 12 -23 12 15 17 21 3 51 5 66 5 l27 0 -21 -23z m1272 8 c0 -9 -81 -41
-90 -35 -5 3 -11 1 -15 -5 -3 -5 -19 -10 -36 -10 -22 0 -29 5 -29 19 0 23 33
36 57 23 11 -7 21 -6 29 2 11 12 84 17 84 6z m-185 -35 c0 -15 -9 -20 -42 -22
-43 -3 -59 13 -25 23 9 3 24 9 32 14 21 12 35 6 35 -15z m1125 -104 c-5 -35
-12 -66 -16 -70 -7 -7 5 119 13 132 11 18 12 -2 3 -62z m97 17 c-3 -8 -6 -5
-6 6 -1 11 2 17 5 13 3 -3 4 -12 1 -19z m-1351 -6 c7 -4 13 -16 15 -27 2 -11
14 -24 26 -30 12 -5 24 -18 27 -28 3 -12 10 -17 20 -14 11 4 14 -1 14 -22 -1
-16 2 -33 6 -39 15 -25 -13 -19 -32 8 -16 20 -18 30 -9 34 6 4 0 4 -15 1 -18
-3 -28 -1 -28 6 0 8 -5 7 -16 -2 -15 -12 -16 -9 -13 29 3 29 1 42 -8 42 -7 0
-13 11 -13 25 0 26 7 30 26 17z m187 1 c-7 -2 -19 -2 -25 0 -7 3 -2 5 12 5 14
0 19 -2 13 -5z m1048 -174 l-9 -34 -1 30 c0 17 2 41 6 55 7 23 8 24 11 4 2
-12 -1 -37 -7 -55z m-1459 -60 c-2 -16 -8 -27 -12 -24 -5 3 -11 -3 -14 -12 -2
-10 -2 0 1 22 2 22 7 49 10 60 6 19 6 19 13 1 3 -10 4 -31 2 -47z m553 41 c0
-7 -6 -15 -12 -17 -8 -3 -13 4 -13 17 0 13 5 20 13 18 6 -3 12 -11 12 -18z
m-65 -5 c10 -12 9 -15 -6 -15 -11 0 -24 -10 -29 -22 -13 -28 -25 -31 -50 -12
-14 11 -16 18 -7 21 6 3 12 11 12 18 0 26 60 34 80 10z m1180 -86 c75 -52 135
-160 110 -199 -7 -12 -11 -8 -16 18 -8 38 -16 40 -29 10 -6 -13 -25 -30 -42
-38 -29 -13 -50 -44 -82 -114 -2 -5 9 -5 25 -1 16 4 37 7 48 7 10 -1 27 9 37
21 27 33 23 3 -7 -44 l-25 -41 -59 7 c-39 5 -60 3 -65 -5 -5 -8 -12 -5 -22 9
-14 21 -53 29 -53 11 0 -5 5 -10 10 -10 6 0 10 -8 10 -17 0 -9 -3 -13 -7 -10
-6 7 -27 -22 -39 -55 -3 -9 -12 -14 -19 -11 -11 4 -10 12 5 39 22 39 22 39
-25 20 -38 -16 -43 -27 -20 -46 13 -11 12 -14 -10 -26 -44 -23 -79 11 -37 35
15 10 15 13 -11 36 l-29 25 49 53 c49 54 111 153 178 285 44 84 56 88 125 41z
m430 -90 c0 -6 -4 -7 -10 -4 -5 3 -10 11 -10 16 0 6 5 7 10 4 6 -3 10 -11 10
-16z m-2030 -34 c0 -8 -4 -15 -9 -15 -13 0 -22 16 -14 24 11 11 23 6 23 -9z
m190 6 c0 -5 9 -13 20 -16 11 -4 18 -11 15 -16 -7 -10 4 -15 59 -24 35 -6 38
-8 34 -36 -4 -25 -1 -29 21 -30 24 -2 24 -2 4 -6 -47 -9 -17 -33 40 -33 23 0
28 -3 20 -11 -14 -14 -140 -3 -149 13 -5 7 4 9 24 6 25 -4 29 -2 21 9 -7 7
-17 13 -24 13 -8 0 -15 4 -17 10 -3 9 -33 18 -67 19 -12 1 -12 4 -3 13 8 8 6
16 -10 30 -18 15 -18 18 -4 18 13 0 15 4 6 19 -13 25 -13 31 0 31 6 0 10 -4
10 -9z m1828 -107 c-4 -6 -5 -14 -1 -17 3 -4 1 -7 -5 -7 -6 0 -14 5 -17 10 -3
6 -2 10 2 10 5 0 8 16 7 37 -3 57 10 75 16 23 3 -25 2 -50 -2 -56z m-8 -94 c0
-5 -4 -10 -10 -10 -5 0 -10 5 -10 10 0 6 5 10 10 10 6 0 10 -4 10 -10z m-46
-16 c25 -10 19 -24 -9 -22 -25 2 -31 9 -18 21 8 8 8 8 27 1z m-844 -92 c-6 -2
-10 -12 -10 -21 0 -10 -7 -18 -15 -18 -16 0 -12 30 8 55 8 11 12 11 18 0 5 -7
4 -14 -1 -16z m370 13 c0 -8 -4 -15 -10 -15 -5 0 -10 7 -10 15 0 8 5 15 10 15
6 0 10 -7 10 -15z m-34 -19 c-4 -15 -1 -28 6 -32 8 -5 9 -2 5 9 -5 14 -2 16
18 11 17 -4 25 -2 25 7 0 11 3 11 10 -1 17 -26 11 -37 -25 -54 -53 -25 -50
-33 17 -40 68 -7 138 -25 138 -37 0 -4 9 -5 20 -2 11 3 20 1 20 -4 0 -5 6 -10
13 -11 38 -3 53 -8 57 -20 4 -9 15 -6 40 13 51 37 61 30 15 -11 -106 -95 -95
-88 -95 -65 0 12 6 21 15 21 20 0 19 20 -2 36 -26 19 -33 17 -30 -8 2 -19 -4
-24 -27 -26 -34 -4 -133 -64 -157 -95 -12 -15 -22 -18 -35 -12 -51 22 -77 16
-116 -26 -43 -47 -50 -39 -13 15 14 20 25 39 25 42 0 7 64 63 72 64 4 0 10
-11 14 -25 3 -13 13 -30 21 -37 12 -10 18 -8 33 12 12 15 15 30 11 40 -5 8
-11 31 -15 51 -7 41 -18 53 -56 62 -21 5 -39 -9 -131 -102 -59 -59 -110 -117
-113 -129 -4 -12 -11 -20 -16 -17 -4 3 -20 -10 -35 -27 -31 -37 -55 -54 -55
-39 0 5 27 46 60 90 33 45 60 86 60 91 0 6 5 10 10 10 6 0 10 6 10 14 0 8 6
17 13 19 7 4 6 6 -5 6 -15 1 -15 4 0 40 9 22 20 37 24 34 5 -2 8 10 8 26 0 21
5 31 15 31 8 0 15 5 15 11 0 5 5 7 10 4 6 -3 10 -1 10 4 0 6 4 11 9 11 4 0 7
-18 6 -40 -1 -22 1 -40 5 -40 13 0 20 30 14 57 -4 16 -3 24 3 20 5 -3 25 12
44 33 40 46 43 48 35 16z m-219 -17 c13 -13 -11 -60 -40 -79 -26 -16 -32 -6
-14 27 9 15 18 36 21 46 6 20 17 22 33 6z m483 -9 c13 -7 13 -10 -2 -15 -10
-4 -18 -12 -18 -19 0 -18 -57 -19 -64 -1 -3 8 -14 15 -25 15 -30 0 -35 19 -9
30 24 10 92 4 118 -10z m-694 -134 c-28 -47 -46 -59 -46 -29 0 27 52 95 63 84
6 -6 0 -26 -17 -55z m185 14 c25 -14 24 -24 -5 -38 -19 -8 -27 -8 -36 3 -14
16 -7 45 10 45 6 0 20 -5 31 -10z m-76 -31 c-7 -20 -59 -79 -70 -79 -15 0 -1
29 25 53 17 16 28 33 24 38 -3 5 2 9 11 9 12 0 15 -6 10 -21z m361 -15 c-3 -9
-3 -21 1 -27 10 -17 13 -39 6 -50 -8 -13 -32 32 -33 59 0 22 8 34 23 34 5 0 6
-7 3 -16z m-544 -89 c-4 -21 -50 -65 -68 -65 -20 0 -18 7 18 51 32 40 56 47
50 14z m147 -9 c9 -11 10 -20 1 -35 -11 -22 -26 -27 -32 -11 -1 5 -13 11 -25
13 -12 2 -26 7 -30 12 -5 4 -2 5 5 1 7 -4 12 -1 12 7 0 10 7 13 20 10 11 -3
20 0 20 6 0 15 15 14 29 -3z m591 8 c0 -7 -40 -44 -47 -44 -9 0 -1 20 13 34
16 16 34 21 34 10z m-90 -29 c0 -8 -9 -19 -21 -25 -15 -9 -19 -18 -15 -35 5
-18 0 -28 -23 -44 -16 -12 -34 -21 -40 -21 -7 0 -23 -7 -36 -16 -14 -9 -32
-13 -42 -10 -15 6 -14 9 7 19 14 7 26 19 26 27 3 30 16 60 24 55 11 -7 91 37
97 53 7 17 23 15 23 -3z m-590 -25 c0 -16 -48 -61 -54 -52 -3 5 4 15 15 22 10
8 19 20 19 27 0 7 5 13 10 13 6 0 10 -5 10 -10z m140 0 c0 -5 -4 -10 -10 -10
-5 0 -10 5 -10 10 0 6 5 10 10 10 6 0 10 -4 10 -10z m450 -36 c0 -8 -5 -12
-10 -9 -6 4 -8 11 -5 16 9 14 15 11 15 -7z m-750 -29 c0 -17 -48 -75 -62 -75
-24 0 -23 5 8 46 22 29 54 46 54 29z m150 -80 c-16 -20 -23 -19 -38 6 -10 16
-11 24 -1 35 10 13 15 12 31 -6 16 -17 17 -24 8 -35z m80 -5 c-6 -11 -15 -20
-20 -20 -14 0 -12 6 6 24 21 22 27 20 14 -4z m160 -47 c0 -6 10 -18 21 -29 16
-14 23 -15 26 -6 5 14 93 17 93 3 0 -15 -30 -22 -50 -11 -12 6 -21 6 -25 1 -7
-12 2 -16 45 -20 36 -3 50 -15 49 -41 0 -10 -2 -11 -6 -2 -3 7 -26 12 -61 12
-54 0 -107 24 -107 47 0 5 -9 18 -21 31 -14 15 -19 31 -16 52 l4 29 24 -28
c13 -16 24 -33 24 -38z m115 47 c3 -5 1 -10 -4 -10 -6 0 -11 5 -11 10 0 6 2
10 4 10 3 0 8 -4 11 -10z m-366 -87 c-29 -33 -63 -62 -67 -59 -8 9 15 40 47
61 46 32 50 31 20 -2z m-99 -2 c0 -22 -15 -35 -30 -26 -7 4 -7 13 0 26 14 25
30 25 30 0z m699 -89 c0 -24 -1 -25 -9 -7 -12 28 -12 47 0 40 6 -3 10 -18 9
-33z m-679 14 c0 -3 -4 -8 -10 -11 -5 -3 -10 -1 -10 4 0 6 5 11 10 11 6 0 10
-2 10 -4z m470 -19 c-1 -13 -83 -77 -98 -77 -5 0 -23 -7 -41 -16 -17 -8 -46
-14 -64 -13 -18 2 -38 0 -45 -5 -36 -22 -53 17 -29 67 16 36 31 34 24 -3 -4
-17 -2 -30 3 -30 6 0 10 5 10 11 0 7 12 23 28 37 22 21 36 26 73 24 26 -1 64
4 85 12 41 14 54 13 54 -7z m-374 -22 c17 -13 3 -38 -17 -30 -9 3 -14 17 -13
33 2 36 4 40 11 22 4 -8 12 -19 19 -25z m-150 -20 c-9 -14 -21 -25 -26 -25 -6
0 -10 -7 -10 -15 0 -19 5 -19 68 5 28 11 52 15 52 10 0 -6 7 -10 15 -10 8 0
15 -7 15 -16 0 -13 -3 -14 -14 -4 -13 10 -13 8 -3 -14 7 -14 15 -26 20 -26 4
0 7 -4 7 -10 0 -5 -6 -10 -13 -10 -7 0 -31 -15 -53 -34 -47 -40 -80 -50 -78
-24 1 14 -4 17 -25 12 -28 -7 -51 -30 -51 -52 0 -7 -4 -11 -9 -8 -5 3 -11 -1
-15 -9 -6 -17 -76 -21 -76 -5 0 6 5 10 10 10 6 0 10 6 10 13 -1 6 -8 3 -18 -9
-18 -21 -83 -40 -95 -28 -15 16 82 144 110 144 7 0 18 9 25 20 18 28 30 25 22
-6 -5 -19 -4 -25 5 -20 6 4 11 14 11 22 0 18 67 84 86 84 8 0 19 9 26 20 7 10
14 17 16 15 3 -2 -3 -16 -12 -30z m244 -94 c0 -5 14 -14 30 -21 17 -7 30 -17
30 -22 0 -12 -64 1 -68 13 -2 5 -15 9 -28 9 -15 0 -24 6 -24 15 0 10 10 15 30
15 17 0 30 -4 30 -9z m162 -20 c-32 -32 -67 -44 -67 -22 0 10 46 35 93 50 2 1
-10 -12 -26 -28z m-314 -60 c-14 -15 -30 -42 -37 -60 -8 -19 -21 -31 -32 -31
-10 0 -37 -7 -59 -16 -23 -9 -44 -13 -48 -9 -11 11 26 33 69 40 27 5 40 13 45
28 7 24 60 77 76 77 5 0 -1 -13 -14 -29z m689 -8 c-3 -10 -5 -4 -5 12 0 17 2
24 5 18 2 -7 2 -21 0 -30z m-1117 -27 c0 -9 -8 -12 -25 -8 -14 2 -25 8 -25 13
0 5 11 9 25 9 14 0 25 -6 25 -14z m463 -69 c4 3 7 -5 7 -20 0 -35 -13 -41 -41
-18 -20 16 -21 21 -10 35 10 11 17 13 26 6 6 -5 15 -7 18 -3z m187 -12 c20
-12 10 -43 -15 -49 -14 -4 -30 -4 -35 -1 -11 7 -14 48 -4 58 6 6 38 2 54 -8z
m-2020 -100 c0 -8 -9 -15 -20 -15 -11 0 -20 7 -20 15 0 8 9 15 20 15 11 0 20
-7 20 -15z"/>
<path d="M921 2484 c0 -11 3 -14 6 -6 3 7 2 16 -1 19 -3 4 -6 -2 -5 -13z"/>
<path d="M1145 2480 c-3 -5 -1 -10 4 -10 6 0 11 5 11 10 0 6 -2 10 -4 10 -3 0
-8 -4 -11 -10z"/>
<path d="M1042 2320 c0 -14 2 -19 5 -12 2 6 2 18 0 25 -3 6 -5 1 -5 -13z"/>
<path d="M1455 2220 c-3 -5 3 -10 14 -10 12 0 21 5 21 10 0 6 -6 10 -14 10 -8
0 -18 -4 -21 -10z"/>
<path d="M2416 1154 c-9 -8 -16 -19 -16 -23 0 -4 -9 -17 -21 -30 -12 -12 -18
-25 -15 -28 6 -6 85 76 86 90 0 12 -18 8 -34 -9z"/>
<path d="M2426 1114 c-23 -23 -20 -30 4 -9 11 10 20 20 20 22 0 7 -9 2 -24
-13z"/>
</g>
</svg>
