<?xml version="1.0" encoding="UTF-8" standalone="no"?>
<!-- Created with Inkscape (http://www.inkscape.org/) -->

<svg
   width="24"
   height="21"
   viewBox="0 0 6.35 5.55625"
   version="1.1"
   id="svg5"
   xml:space="preserve"
   inkscape:version="1.2.1 (9c6d41e410, 2022-07-14)"
   sodipodi:docname="cart.svg"
   xmlns:inkscape="http://www.inkscape.org/namespaces/inkscape"
   xmlns:sodipodi="http://sodipodi.sourceforge.net/DTD/sodipodi-0.dtd"
   xmlns="http://www.w3.org/2000/svg"
   xmlns:svg="http://www.w3.org/2000/svg"><sodipodi:namedview
     id="namedview7"
     pagecolor="#505050"
     bordercolor="#ffffff"
     borderopacity="1"
     inkscape:showpageshadow="0"
     inkscape:pageopacity="0"
     inkscape:pagecheckerboard="1"
     inkscape:deskcolor="#505050"
     inkscape:document-units="mm"
     showgrid="false"
     inkscape:zoom="23.860606"
     inkscape:cx="18.251842"
     inkscape:cy="15.12954"
     inkscape:window-width="1920"
     inkscape:window-height="1017"
     inkscape:window-x="-8"
     inkscape:window-y="-8"
     inkscape:window-maximized="1"
     inkscape:current-layer="layer1" /><defs
     id="defs2" /><g
     inkscape:label="Layer 1"
     inkscape:groupmode="layer"
     id="layer1"><path
       style="fill:#000000;stroke:none;stroke-width:0.0108344"
       d="M 0.95229652,0.46172007 C 0.96516752,0.75697927 1.0764802,1.0713285 1.1364482,1.3609749 1.27787,2.0440084 1.4288035,2.7250915 1.5677014,3.4086767 c 0.042557,0.2094506 0.085559,0.4200719 0.1334577,0.6283949 0.03052,0.132743 0.079352,0.256971 0.2153987,0.3146848 0.1034894,0.043901 0.2262975,0.032015 0.3358654,0.032015 H 2.8266469 4.896017 c 0.1972297,0 0.4492589,0.041614 0.6392295,-0.014127 C 5.6612616,4.332667 5.72318,4.2038464 5.6875891,4.0804105 5.6590821,3.9815464 5.5676521,3.9295193 5.4702399,3.9197469 5.240128,3.8966458 4.9973405,3.9178959 4.7660041,3.9178959 H 2.8591496 2.3499334 c -0.050402,0 -0.1471205,0.018405 -0.1903281,-0.011135 -0.060054,-0.041072 -0.057856,-0.2144328 -0.080532,-0.2814 C 2.9759776,3.5120111 3.8779408,3.4308617 4.7768384,3.33463 L 5.4810742,3.25879 C 5.6091588,3.245072 5.735618,3.246407 5.8385664,3.1572061 5.9472353,3.0630551 5.9628043,2.9348737 5.9903236,2.8019456 6.0292516,2.6139579 6.0705736,2.4265449 6.1095014,2.2385572 6.1805974,1.8952265 6.255094,1.5526318 6.3261903,1.2092908 6.3577623,1.0567958 6.3831353,0.88640369 6.2286373,0.78641227 6.1070097,0.70770027 5.9436597,0.73257727 5.8061062,0.73257727 H 4.9285199 2.6207934 1.8840541 c -0.1182462,0 -0.2514985,0.017333 -0.3681637,-0.0016 -0.08168,-0.013254 -0.083544,-0.1813718 -0.097715,-0.2475799 C 1.3776764,0.2942662 1.3539154,0.0847611 1.1364801,0.0197914 0.94232857,-0.0382186 0.67776621,0.0066844 0.47558251,0.0066844 c -0.0982431,0 -0.21928441,-0.018878 -0.31419805,0.00855 -0.1708293,0.049373 -0.21652507,0.2733019 -0.08620633,0.3900042 0.07875925,0.07053 0.18340848,0.056487 0.28122569,0.056487 h 0.5958923 M 5.8602781,1.1876175 c -0.031258,0.392671 -0.1585296,0.8072699 -0.2454096,1.1917831 -0.021173,0.093697 -0.041278,0.1874892 -0.06012,0.2816943 -0.00747,0.037344 -0.00953,0.095257 -0.038226,0.1234798 -0.044171,0.043427 -0.1920277,0.03426 -0.2521374,0.039851 C 5.0513803,2.8442297 4.8375519,2.8663107 4.6251548,2.8917087 4.0880176,2.9559557 3.5490716,3.0099861 3.0108288,3.0638008 2.6717022,3.0977138 2.3223575,3.1700871 1.9815622,3.1703148 L 1.6673339,1.664331 1.5698572,1.1876184 H 5.8602785 M 2.4149399,4.6596629 C 1.8495572,4.7615932 2.0125828,5.6597097 2.5774554,5.5580395 2.6465574,5.5456063 2.7150308,5.5214572 2.7724748,5.4803224 3.1692415,5.1962772 2.8853373,4.5748484 2.4149399,4.659661 m 2.4269051,0 C 4.2705681,4.7624683 4.4252735,5.6603141 4.993526,5.5580376 5.0626288,5.5456044 5.1311015,5.5214553 5.1885455,5.4803205 5.579256,5.2006088 5.3137148,4.5747279 4.841845,4.6596591 Z"
       id="path248" /></g></svg>
